<?xml version="1.0" encoding="utf-8"?>
<!-- Generator: Adobe Illustrator 16.0.0, SVG Export Plug-In . SVG Version: 6.00 Build 0)  -->
<!DOCTYPE svg PUBLIC "-//W3C//DTD SVG 1.1//EN" "http://www.w3.org/Graphics/SVG/1.1/DTD/svg11.dtd">
<svg version="1.1" id="Layer_1" xmlns="http://www.w3.org/2000/svg" xmlns:xlink="http://www.w3.org/1999/xlink" x="0px" y="0px"
	 width="32px" height="32px" viewBox="0 0 32 32" enable-background="new 0 0 32 32" xml:space="preserve">
<g>
	<path fill="#FFFFFF" d="M16,0C7.162,0,0,7.162,0,16c0,8.836,7.162,16,16,16c8.836,0,16-7.164,16-16C32,7.162,24.836,0,16,0z
		 M16,29.5C8.543,29.5,2.5,23.455,2.5,16C2.5,8.543,8.543,2.5,16,2.5c7.455,0,13.5,6.043,13.5,13.5C29.5,23.455,23.455,29.5,16,29.5
		z"/>
	<g>
		<g>
			<path fill-rule="evenodd" clip-rule="evenodd" fill="#FFFFFF" d="M8.006,23.992h3v-12h-3V23.992z M20.006,11.992
				c-2.568,0.043-3.832,1.916-4,2v-2h-3v12h3v-7c0-0.256,0.633-2.312,3-2c1.271,0.084,1.957,1.766,2,2v7l2.988,0.014v-8.307
				C23.889,14.5,23.289,12.035,20.006,11.992z M9.506,7.992c-0.828,0-1.5,0.672-1.5,1.5c0,0.83,0.672,1.5,1.5,1.5s1.5-0.67,1.5-1.5
				C11.006,8.664,10.334,7.992,9.506,7.992z"/>
		</g>
	</g>
</g>
</svg>
