<?xml version="1.0" encoding="utf-8"?>
<!-- Generator: Adobe Illustrator 16.0.0, SVG Export Plug-In . SVG Version: 6.00 Build 0)  -->
<!DOCTYPE svg PUBLIC "-//W3C//DTD SVG 1.1//EN" "http://www.w3.org/Graphics/SVG/1.1/DTD/svg11.dtd">
<svg version="1.1" id="Layer_1" xmlns="http://www.w3.org/2000/svg" xmlns:xlink="http://www.w3.org/1999/xlink" x="0px" y="0px"
	 width="210px" height="60px" viewBox="0 0 210 60" enable-background="new 0 0 210 60" xml:space="preserve">
<g>
	<g>
		<path fill="#FFFFFF" d="M0.179,23.483c0.45-0.091,0.908-0.156,1.375-0.199s0.923-0.092,1.374-0.146V3.135
			C2.477,3.079,2.038,3.019,1.611,2.95c-0.43-0.064-0.873-0.145-1.332-0.244C0.258,2.453,0.263,2.208,0.302,1.973
			c0.041-0.236,0.096-0.48,0.173-0.732h9.829c1.328,0,2.496,0.119,3.505,0.354c1.013,0.237,1.853,0.632,2.527,1.193
			c0.675,0.56,1.188,1.307,1.531,2.241c0.345,0.93,0.521,2.094,0.521,3.486c0,1.395-0.143,2.611-0.421,3.654
			c-0.281,1.044-0.745,1.913-1.393,2.604c-0.647,0.688-1.511,1.204-2.592,1.548c-1.08,0.34-2.418,0.509-4.009,0.509
			c-0.66,0-1.304-0.035-1.935-0.108c-0.633-0.07-1.347-0.164-2.146-0.283v6.699c0.217,0.031,0.503,0.063,0.848,0.094
			c0.346,0.033,0.701,0.071,1.077,0.1c0.374,0.035,0.732,0.07,1.078,0.107c0.347,0.039,0.628,0.082,0.848,0.125
			c0.089,0.506,0.089,1.009,0,1.514H0.279L0.179,23.483z M8.492,14.84c1.428,0.087,2.582-0.006,3.465-0.272
			c0.883-0.27,1.572-0.689,2.067-1.268c0.492-0.578,0.827-1.295,0.994-2.159c0.169-0.858,0.256-1.844,0.256-2.954
			c0-0.854-0.074-1.603-0.221-2.243c-0.149-0.645-0.476-1.181-0.974-1.606c-0.498-0.43-1.228-0.746-2.187-0.948
			c-0.964-0.202-2.251-0.288-3.86-0.254L5.893,3.167V14.69L8.492,14.84z"/>
		<path fill="#FFFFFF" d="M21.415,23.627c0.416-0.149,0.869-0.267,1.35-0.335c0.484-0.07,0.948-0.137,1.4-0.192V3.135
			c-0.452-0.056-0.892-0.116-1.318-0.185c-0.429-0.064-0.874-0.145-1.332-0.244c-0.022-0.253-0.015-0.498,0.022-0.733
			c0.041-0.236,0.1-0.48,0.172-0.732h9.237c1.427,0,2.646,0.105,3.655,0.312c1.009,0.208,1.836,0.564,2.475,1.072
			c0.645,0.505,1.113,1.182,1.41,2.032c0.293,0.849,0.442,1.911,0.442,3.186c0,0.789-0.08,1.592-0.245,2.41
			c-0.165,0.817-0.445,1.578-0.848,2.281c-0.4,0.702-0.937,1.32-1.604,1.851c-0.671,0.532-1.506,0.905-2.505,1.112l4.988,7.641
			l2.486,0.426c0.012,0.012,0.016,0.072,0.016,0.181c0,0.11-0.006,0.241-0.021,0.395c-0.02,0.157-0.045,0.315-0.077,0.487
			c-0.033,0.17-0.071,0.322-0.115,0.451h-4.741l-5.317-9.168H30.32c-0.33,0-0.606,0-0.83,0c-0.227,0-0.446-0.005-0.668-0.016
			c-0.219-0.012-0.455-0.025-0.716-0.035c-0.259-0.01-0.584-0.031-0.979-0.064V23.1l2.634,0.527
			c0.021,0.056,0.033,0.147,0.043,0.267c0.005,0.12,0.006,0.218,0.006,0.296c0,0.153-0.021,0.32-0.064,0.502
			c-0.046,0.181-0.086,0.311-0.133,0.386h-8.051L21.415,23.627z M29.727,14.065c1.152,0,2.119-0.129,2.9-0.387
			c0.777-0.258,1.407-0.647,1.883-1.172c0.478-0.518,0.821-1.178,1.03-1.974c0.208-0.795,0.312-1.729,0.312-2.806
			c0-0.727-0.083-1.38-0.247-1.961c-0.163-0.581-0.451-1.074-0.856-1.482c-0.406-0.404-0.957-0.711-1.652-0.919
			c-0.698-0.209-1.575-0.3-2.628-0.265l-3.342,0.066v10.898H29.727z"/>
		<path fill="#FFFFFF" d="M43.475,23.599c0.43-0.155,0.914-0.268,1.456-0.34s1.045-0.135,1.506-0.188V3.218l-2.699-0.512
			c-0.023-0.056-0.036-0.157-0.04-0.305c-0.005-0.148-0.009-0.266-0.009-0.353c0-0.158,0.021-0.308,0.066-0.462
			c0.042-0.153,0.087-0.27,0.131-0.347h8.183l0.162,1.385c-0.394,0.14-0.854,0.261-1.382,0.36c-0.526,0.099-1.014,0.177-1.467,0.232
			v19.854l3.065,0.556c0.02,0.056,0.034,0.137,0.039,0.241c0.006,0.105,0.008,0.197,0.008,0.271c0,0.157-0.02,0.331-0.064,0.528
			c-0.043,0.196-0.089,0.335-0.132,0.41h-8.677L43.475,23.599z"/>
		<path fill="#FFFFFF" d="M55.523,23.599c0.43-0.155,0.88-0.268,1.36-0.34c0.476-0.072,0.941-0.135,1.39-0.188V3.218l-2.75-0.512
			c-0.021-0.056-0.031-0.147-0.031-0.272c0-0.126,0-0.226,0-0.307c0-0.163,0.022-0.331,0.064-0.506
			c0.043-0.176,0.082-0.304,0.115-0.381h6.189l1.186,2.042h0.015l9.467,16.461l1.336,3.262l-0.248-3.64V3.218l-2.881-0.512
			c-0.023-0.056-0.032-0.147-0.032-0.272c0-0.126,0-0.226,0-0.307c0-0.163,0.021-0.331,0.064-0.506
			c0.045-0.176,0.087-0.304,0.132-0.381h7.575l0.146,1.414c-0.429,0.124-0.837,0.231-1.219,0.331
			c-0.384,0.099-0.807,0.177-1.267,0.232v21.859c-0.233,0.09-0.508,0.16-0.831,0.223c-0.325,0.059-0.656,0.105-0.988,0.14
			c-0.334,0.035-0.66,0.049-0.98,0.049c-0.318,0-0.586-0.021-0.808-0.065v-0.048L61.747,6.674l-1.088-2.717l0.149,2.833v16.281
			l3.227,0.527c0.022,0.053,0.035,0.141,0.042,0.253c0.007,0.116,0.008,0.214,0.008,0.287c0,0.157-0.025,0.331-0.075,0.528
			c-0.047,0.196-0.091,0.335-0.123,0.41h-8.215L55.523,23.599z"/>
		<path fill="#FFFFFF" d="M82.326,13.405c0-2.119,0.251-3.964,0.757-5.547c0.504-1.58,1.226-2.896,2.173-3.951
			c0.944-1.052,2.09-1.84,3.44-2.36c1.35-0.521,2.868-0.784,4.56-0.784c0.877,0,1.682,0.04,2.418,0.115
			c0.736,0.078,1.4,0.175,1.994,0.296c0.591,0.121,1.111,0.255,1.555,0.396s0.814,0.273,1.113,0.394l0.048,0.199
			c0.011,0.416-0.009,0.884-0.056,1.4c-0.053,0.516-0.112,1.024-0.185,1.53c-0.069,0.504-0.146,0.969-0.222,1.391
			c-0.078,0.421-0.148,0.752-0.213,0.996c-0.252,0.053-0.547,0.078-0.88,0.072c-0.336-0.003-0.662-0.031-0.981-0.072l-0.296-3.605
			c-0.394-0.211-0.814-0.382-1.249-0.517c-0.439-0.139-0.885-0.247-1.336-0.322C94.52,2.96,94.08,2.905,93.66,2.876
			c-0.425-0.023-0.815-0.039-1.178-0.039c-1.275,0-2.358,0.247-3.252,0.74c-0.896,0.495-1.621,1.19-2.18,2.083
			c-0.561,0.895-0.967,1.969-1.222,3.217c-0.253,1.253-0.378,2.63-0.378,4.133c0,1.745,0.133,3.265,0.398,4.56
			c0.262,1.297,0.699,2.375,1.307,3.237c0.607,0.861,1.42,1.505,2.43,1.926c1.008,0.423,2.254,0.634,3.732,0.634
			c0.419,0,0.842-0.018,1.271-0.049c0.429-0.033,0.831-0.086,1.211-0.148c0.378-0.069,0.725-0.143,1.042-0.23
			c0.318-0.09,0.58-0.183,0.774-0.28l0.938-3.704c0.461-0.055,0.822-0.074,1.088-0.061c0.262,0.02,0.482,0.061,0.658,0.129
			c0.01,0.229,0.022,0.508,0.035,0.837c0.007,0.331,0.018,0.694,0.023,1.093c0.006,0.401,0.008,0.829,0.008,1.277
			c0,0.45-0.012,0.908-0.031,1.369c-0.199,0.203-0.529,0.426-0.991,0.657c-0.458,0.229-1.019,0.442-1.677,0.631
			c-0.659,0.194-1.396,0.351-2.215,0.479c-0.818,0.127-1.676,0.189-2.578,0.189c-1.02,0-1.991-0.062-2.912-0.181
			c-0.924-0.121-1.775-0.344-2.559-0.669c-0.785-0.322-1.492-0.772-2.115-1.351c-0.628-0.575-1.16-1.313-1.599-2.212
			c-0.438-0.899-0.776-1.981-1.014-3.253C82.441,16.624,82.326,15.132,82.326,13.405z"/>
		<path fill="#FFFFFF" d="M103.921,23.599c0.419-0.155,0.869-0.263,1.353-0.322c0.482-0.061,0.948-0.121,1.398-0.177V3.218
			l-2.648-0.512c-0.023-0.056-0.035-0.147-0.035-0.272c0-0.126,0-0.226,0-0.307c0-0.163,0.022-0.331,0.067-0.506
			c0.042-0.176,0.087-0.304,0.13-0.381h16.611l0.23,0.266c0.012,0.416-0.007,0.896-0.051,1.44c-0.045,0.541-0.102,1.083-0.172,1.621
			c-0.072,0.537-0.146,1.035-0.224,1.488c-0.075,0.456-0.147,0.804-0.214,1.046c-0.252,0.055-0.534,0.08-0.847,0.075
			c-0.312-0.007-0.628-0.033-0.946-0.075l-0.295-3.935h-8.643v8.61l8.197-0.099c0.056,0.316,0.065,0.68,0.031,1.086
			c-0.031,0.404-0.075,0.787-0.133,1.137l-8.096-0.18V23.1h9.416l1.085-3.668c0.319-0.022,0.64-0.022,0.962,0
			c0.326,0.02,0.613,0.071,0.865,0.148c-0.012,0.384-0.03,0.81-0.059,1.281c-0.024,0.472-0.062,0.95-0.105,1.426
			c-0.045,0.478-0.088,0.935-0.135,1.374c-0.041,0.441-0.086,0.824-0.127,1.152l-0.347,0.264H104.07L103.921,23.599z"/>
		<path fill="#FFFFFF" d="M124.814,23.514c0.446-0.086,0.91-0.169,1.391-0.249c0.477-0.072,0.945-0.141,1.405-0.193V3.167
			c-0.46-0.056-0.903-0.112-1.333-0.173c-0.428-0.061-0.868-0.146-1.316-0.255c-0.057-0.506-0.008-1.003,0.146-1.499h9.418
			c0.988,0,1.941,0.07,2.855,0.205c0.916,0.138,1.768,0.368,2.56,0.692c0.79,0.323,1.511,0.755,2.159,1.293
			c0.646,0.539,1.195,1.2,1.652,1.992c0.453,0.79,0.809,1.719,1.063,2.792c0.251,1.066,0.376,2.305,0.376,3.71v1.349
			c0,2.154-0.252,3.977-0.747,5.476c-0.503,1.495-1.232,2.715-2.198,3.654c-0.967,0.938-2.152,1.619-3.553,2.042
			c-1.408,0.421-3.015,0.632-4.826,0.632h-8.955L124.814,23.514z M134.113,23.187h0.823c1.272,0,2.359-0.228,3.261-0.684
			c0.898-0.456,1.631-1.107,2.199-1.95c0.562-0.847,0.977-1.874,1.24-3.081c0.264-1.205,0.395-2.561,0.395-4.066v-1.252
			c0-1.7-0.172-3.114-0.518-4.245c-0.346-1.132-0.881-2.042-1.605-2.735c-0.725-0.69-1.654-1.189-2.79-1.494
			c-1.137-0.311-2.494-0.489-4.076-0.544l-2.483,0.032v19.904L134.113,23.187z"/>
		<path fill="#FFFFFF" d="M147.893,23.599c0.078-0.035,0.182-0.074,0.322-0.115c0.139-0.047,0.285-0.087,0.442-0.128
			c0.162-0.036,0.321-0.075,0.485-0.114s0.314-0.072,0.446-0.104l7.472-21.897c0.277-0.043,0.57-0.074,0.882-0.092
			c0.313-0.014,0.62-0.025,0.924-0.025c0.3,0,0.594,0.012,0.882,0.037c0.283,0.02,0.54,0.049,0.77,0.08l7.705,21.976l1.729,0.383
			l-0.163,1.479h-7.708l-0.146-1.479c0.222-0.058,0.467-0.113,0.74-0.168c0.277-0.055,0.557-0.104,0.849-0.146
			c0.291-0.043,0.575-0.083,0.849-0.115c0.274-0.031,0.523-0.069,0.74-0.098l-2.104-6.158h-8.909l-2.057,6.158h0.082l3.342,0.527
			l-0.146,1.479h-7.244L147.893,23.599z M162.396,15.005l-3.621-10.457l-0.297-1.035l-0.412,1.775l-3.294,9.717H162.396z"/>
		<path fill="#FFFFFF" d="M172.143,23.599c0.417-0.155,0.867-0.263,1.351-0.322c0.481-0.061,0.947-0.121,1.398-0.177V3.218
			l-2.685-0.512c-0.02-0.143-0.025-0.268-0.014-0.371c0.009-0.104,0.014-0.199,0.014-0.286c0.022-0.187,0.045-0.351,0.07-0.488
			c0.02-0.137,0.045-0.243,0.078-0.32h8.612l0.147,1.385c-0.188,0.064-0.42,0.125-0.699,0.181c-0.282,0.056-0.573,0.109-0.873,0.166
			c-0.302,0.051-0.604,0.099-0.906,0.139c-0.302,0.037-0.563,0.071-0.779,0.107V23.1h8.359l1.169-3.931
			c0.319-0.022,0.64-0.022,0.965,0c0.322,0.021,0.611,0.071,0.861,0.148c-0.009,0.385-0.028,0.824-0.056,1.325
			c-0.027,0.498-0.063,1.005-0.107,1.515c-0.045,0.51-0.087,0.998-0.132,1.465c-0.042,0.468-0.082,0.863-0.117,1.191l-0.36,0.264
			h-16.15L172.143,23.599z"/>
		<path fill="#FFFFFF" d="M191.78,23.599c0.416-0.155,0.869-0.263,1.35-0.322c0.485-0.061,0.948-0.121,1.399-0.177V3.218
			l-2.649-0.512c-0.022-0.056-0.034-0.147-0.034-0.272c0-0.126,0-0.226,0-0.307c0-0.163,0.021-0.331,0.066-0.506
			c0.045-0.176,0.09-0.304,0.131-0.381h16.614l0.226,0.266c0.014,0.416-0.004,0.896-0.047,1.44
			c-0.045,0.541-0.103,1.083-0.174,1.621c-0.073,0.537-0.146,1.035-0.225,1.488c-0.072,0.456-0.146,0.804-0.211,1.046
			c-0.254,0.055-0.535,0.08-0.85,0.075c-0.31-0.007-0.627-0.033-0.945-0.075l-0.295-3.935h-8.645v8.61l8.199-0.099
			c0.055,0.316,0.064,0.68,0.033,1.086c-0.033,0.404-0.08,0.787-0.135,1.137l-8.098-0.18V23.1h9.416l1.086-3.668
			c0.319-0.022,0.641-0.022,0.966,0c0.321,0.02,0.608,0.071,0.861,0.148c-0.009,0.384-0.028,0.81-0.056,1.281
			s-0.064,0.95-0.107,1.426c-0.045,0.478-0.09,0.935-0.132,1.374c-0.042,0.441-0.089,0.824-0.132,1.152l-0.346,0.264h-17.121
			L191.78,23.599z"/>
	</g>
	<g>
		<path fill="#4D4E50" d="M0.179,57.195c0.45-0.09,0.908-0.153,1.375-0.197c0.467-0.041,0.923-0.093,1.376-0.148V36.849
			c-0.453-0.057-0.892-0.115-1.317-0.183c-0.43-0.065-0.874-0.146-1.334-0.247c-0.021-0.249-0.016-0.495,0.021-0.73
			c0.044-0.238,0.102-0.481,0.176-0.732h9.83c1.327,0,2.495,0.119,3.504,0.355c1.012,0.234,1.853,0.631,2.528,1.191
			c0.674,0.559,1.184,1.307,1.53,2.239c0.346,0.932,0.519,2.097,0.519,3.489c0,1.396-0.141,2.611-0.419,3.654
			c-0.279,1.042-0.745,1.91-1.393,2.602c-0.647,0.689-1.511,1.206-2.592,1.549c-1.08,0.341-2.418,0.508-4.006,0.508
			c-0.661,0-1.308-0.035-1.937-0.105c-0.634-0.07-1.348-0.167-2.147-0.288v6.699c0.217,0.033,0.501,0.065,0.848,0.1
			c0.346,0.032,0.704,0.068,1.076,0.099c0.375,0.034,0.734,0.068,1.079,0.104c0.347,0.04,0.628,0.081,0.848,0.124
			c0.089,0.508,0.089,1.012,0,1.518H0.278L0.179,57.195z M8.492,48.556c1.427,0.083,2.582-0.006,3.465-0.272
			c0.883-0.271,1.572-0.692,2.067-1.269c0.492-0.577,0.827-1.294,0.994-2.159c0.172-0.858,0.256-1.843,0.256-2.952
			c0-0.855-0.074-1.604-0.221-2.248c-0.149-0.641-0.476-1.179-0.974-1.604c-0.5-0.428-1.228-0.744-2.188-0.95
			c-0.961-0.199-2.249-0.285-3.859-0.253l-2.141,0.033v11.522L8.492,48.556z"/>
		<path fill="#4D4E50" d="M20.328,57.312c0.078-0.035,0.183-0.071,0.32-0.116c0.138-0.044,0.286-0.084,0.445-0.126
			c0.159-0.035,0.321-0.073,0.487-0.112c0.163-0.038,0.31-0.074,0.444-0.107l7.472-21.894c0.276-0.043,0.57-0.073,0.882-0.092
			c0.313-0.016,0.618-0.025,0.924-0.025c0.299,0,0.593,0.013,0.88,0.035c0.282,0.021,0.542,0.051,0.773,0.082l7.702,21.975
			l1.729,0.381l-0.164,1.482H34.52l-0.148-1.482c0.221-0.055,0.467-0.109,0.739-0.165c0.275-0.056,0.557-0.104,0.849-0.148
			c0.291-0.041,0.575-0.083,0.847-0.115c0.274-0.033,0.523-0.067,0.741-0.098l-2.104-6.158h-8.908l-2.058,6.158h0.083l3.342,0.526
			l-0.149,1.482h-7.243L20.328,57.312z M34.831,48.718L31.21,38.264l-0.296-1.036l-0.411,1.776l-3.294,9.714H34.831z"/>
		<path fill="#4D4E50" d="M44.579,57.343c0.415-0.15,0.866-0.267,1.348-0.337c0.484-0.071,0.95-0.136,1.401-0.19V36.849
			c-0.451-0.057-0.892-0.115-1.316-0.183c-0.43-0.065-0.874-0.146-1.333-0.247c-0.025-0.249-0.016-0.495,0.022-0.73
			c0.039-0.238,0.097-0.481,0.173-0.732h9.236c1.426,0,2.646,0.104,3.655,0.312c1.008,0.208,1.835,0.564,2.478,1.071
			c0.64,0.505,1.107,1.183,1.406,2.033c0.295,0.848,0.443,1.911,0.443,3.184c0,0.791-0.081,1.595-0.246,2.411
			C61.682,44.787,61.4,45.546,61,46.249c-0.398,0.703-0.937,1.32-1.604,1.854c-0.669,0.53-1.506,0.9-2.504,1.109l4.987,7.638
			l2.487,0.427c0.01,0.014,0.015,0.072,0.015,0.182c0,0.11-0.006,0.244-0.022,0.396c-0.017,0.155-0.042,0.316-0.077,0.488
			c-0.031,0.168-0.069,0.318-0.111,0.451h-4.742l-5.317-9.172h-0.625c-0.331,0-0.606,0-0.832,0c-0.227,0-0.448-0.002-0.668-0.015
			c-0.218-0.013-0.457-0.024-0.714-0.034c-0.259-0.009-0.586-0.033-0.979-0.063v7.306l2.632,0.527
			c0.022,0.056,0.035,0.145,0.044,0.266c0.005,0.121,0.007,0.219,0.007,0.297c0,0.152-0.023,0.32-0.067,0.502
			c-0.043,0.18-0.087,0.311-0.132,0.387h-8.05L44.579,57.343z M52.892,47.781c1.151,0,2.117-0.13,2.899-0.389
			c0.776-0.258,1.406-0.646,1.882-1.169c0.479-0.521,0.822-1.18,1.03-1.975s0.312-1.732,0.312-2.807
			c0-0.727-0.082-1.379-0.249-1.961c-0.162-0.58-0.447-1.076-0.855-1.481c-0.406-0.406-0.955-0.711-1.652-0.919
			c-0.699-0.209-1.573-0.298-2.627-0.265l-3.34,0.065v10.899H52.892z"/>
		<path fill="#4D4E50" d="M70.601,57.312c0.21-0.078,0.457-0.141,0.742-0.189c0.285-0.053,0.578-0.095,0.872-0.141
			c0.296-0.043,0.591-0.08,0.882-0.104c0.291-0.028,0.547-0.062,0.764-0.092V36.733h-5.627l-0.314,3.968
			c-0.318,0.046-0.647,0.064-0.988,0.058c-0.34-0.006-0.634-0.037-0.889-0.092c-0.032-0.307-0.069-0.689-0.116-1.143
			c-0.041-0.454-0.083-0.934-0.115-1.434c-0.032-0.497-0.06-0.998-0.082-1.498c-0.021-0.5-0.032-0.957-0.032-1.373l0.346-0.264
			h18.601l0.365,0.264c0,0.416-0.014,0.873-0.034,1.373s-0.051,1.001-0.091,1.498c-0.039,0.5-0.078,0.979-0.123,1.434
			c-0.043,0.453-0.081,0.836-0.117,1.143c-0.25,0.055-0.544,0.086-0.88,0.092c-0.334,0.007-0.66-0.012-0.979-0.058l-0.329-3.968
			H76.81v19.987l3.637,0.622c0.022,0.056,0.035,0.135,0.035,0.239c0,0.106,0,0.196,0,0.272c0,0.155-0.022,0.332-0.07,0.526
			c-0.042,0.198-0.086,0.337-0.127,0.413h-9.536L70.601,57.312z"/>
		<path fill="#4D4E50" d="M87.014,57.312c0.43-0.154,0.883-0.264,1.36-0.338c0.478-0.072,0.94-0.134,1.391-0.188V36.932
			l-2.751-0.513c-0.02-0.055-0.031-0.145-0.031-0.27c0-0.127,0-0.226,0-0.307c0-0.164,0.021-0.332,0.064-0.507
			c0.046-0.177,0.082-0.304,0.117-0.38h6.189l1.184,2.041h0.02l9.464,16.461l1.336,3.263l-0.248-3.64V36.932l-2.882-0.513
			c-0.021-0.055-0.033-0.145-0.033-0.27c0-0.127,0-0.226,0-0.307c0-0.164,0.021-0.332,0.066-0.507
			c0.045-0.177,0.085-0.304,0.133-0.38h7.571l0.149,1.413c-0.43,0.124-0.836,0.231-1.22,0.331c-0.384,0.098-0.805,0.176-1.269,0.231
			v21.862c-0.23,0.085-0.506,0.158-0.828,0.22c-0.324,0.06-0.656,0.108-0.99,0.142s-0.66,0.049-0.979,0.049
			c-0.316,0-0.588-0.021-0.808-0.064v-0.049L93.236,40.39l-1.086-2.717l0.147,2.832v16.28l3.229,0.526
			c0.021,0.056,0.033,0.141,0.043,0.255c0.003,0.114,0.006,0.212,0.006,0.288c0,0.155-0.025,0.332-0.076,0.526
			c-0.047,0.198-0.09,0.337-0.122,0.413h-8.214L87.014,57.312z"/>
		<path fill="#4D4E50" d="M113.238,57.312c0.417-0.154,0.87-0.261,1.352-0.32c0.483-0.061,0.949-0.121,1.4-0.176V36.932l-2.65-0.513
			c-0.021-0.055-0.034-0.145-0.034-0.27c0-0.127,0-0.226,0-0.307c0-0.164,0.022-0.332,0.067-0.507
			c0.042-0.177,0.087-0.304,0.129-0.38h16.61l0.231,0.264c0.013,0.416-0.008,0.895-0.049,1.44c-0.045,0.542-0.103,1.084-0.172,1.622
			c-0.074,0.536-0.147,1.033-0.225,1.49c-0.074,0.453-0.148,0.803-0.213,1.043c-0.256,0.057-0.534,0.081-0.848,0.076
			c-0.312-0.005-0.628-0.031-0.947-0.076l-0.295-3.934h-8.642v8.609l8.198-0.1c0.053,0.316,0.064,0.681,0.029,1.088
			c-0.029,0.404-0.076,0.786-0.132,1.135l-8.096-0.179v9.38h9.415l1.086-3.668c0.318-0.023,0.641-0.023,0.963,0
			c0.324,0.02,0.612,0.068,0.865,0.146c-0.013,0.385-0.033,0.812-0.061,1.283c-0.024,0.471-0.062,0.947-0.104,1.426
			c-0.044,0.477-0.088,0.936-0.134,1.373c-0.043,0.441-0.088,0.824-0.13,1.154l-0.347,0.264h-17.12L113.238,57.312z"/>
		<path fill="#4D4E50" d="M134.13,57.343c0.415-0.15,0.868-0.267,1.349-0.337c0.485-0.071,0.948-0.136,1.401-0.19V36.849
			c-0.453-0.057-0.89-0.115-1.318-0.183c-0.429-0.065-0.874-0.146-1.333-0.247c-0.022-0.249-0.013-0.495,0.025-0.73
			c0.039-0.238,0.097-0.481,0.171-0.732h9.237c1.425,0,2.645,0.104,3.654,0.312c1.008,0.208,1.836,0.564,2.477,1.071
			c0.641,0.505,1.11,1.183,1.408,2.033c0.295,0.848,0.444,1.911,0.444,3.184c0,0.791-0.081,1.595-0.249,2.411
			c-0.163,0.819-0.443,1.578-0.847,2.281c-0.398,0.703-0.937,1.32-1.603,1.854c-0.671,0.53-1.508,0.9-2.506,1.109l4.99,7.638
			l2.486,0.427c0.008,0.014,0.015,0.072,0.015,0.182c0,0.11-0.008,0.244-0.021,0.396c-0.018,0.155-0.045,0.316-0.077,0.488
			c-0.033,0.168-0.07,0.318-0.117,0.451h-4.736l-5.318-9.172h-0.627c-0.33,0-0.605,0-0.832,0c-0.224,0-0.445-0.002-0.666-0.015
			c-0.22-0.013-0.457-0.024-0.715-0.034c-0.26-0.009-0.586-0.033-0.979-0.063v7.306l2.631,0.527
			c0.023,0.056,0.034,0.145,0.044,0.266c0.004,0.121,0.007,0.219,0.007,0.297c0,0.152-0.023,0.32-0.065,0.502
			c-0.046,0.18-0.089,0.311-0.134,0.387h-8.049L134.13,57.343z M142.441,47.781c1.152,0,2.119-0.13,2.899-0.389
			c0.779-0.258,1.408-0.646,1.885-1.169c0.478-0.521,0.821-1.18,1.028-1.975c0.209-0.795,0.314-1.732,0.314-2.807
			c0-0.727-0.084-1.379-0.25-1.961c-0.161-0.58-0.449-1.076-0.855-1.481c-0.406-0.406-0.957-0.711-1.654-0.919
			c-0.697-0.209-1.573-0.298-2.625-0.265l-3.34,0.065v10.899H142.441z"/>
		<path fill="#4D4E50" d="M157.228,51.962c0.207-0.012,0.386-0.019,0.543-0.019c0.151,0,0.298,0.005,0.437,0.011
			c0.137,0.003,0.277,0.017,0.426,0.039c0.15,0.024,0.333,0.046,0.553,0.066c0.055,0.32,0.1,0.605,0.133,0.861
			c0.032,0.262,0.066,0.521,0.096,0.786c0.035,0.263,0.067,0.538,0.098,0.829c0.038,0.293,0.079,0.633,0.134,1.028
			c0.374,0.231,0.761,0.454,1.16,0.659c0.401,0.211,0.821,0.39,1.271,0.543c0.443,0.153,0.913,0.281,1.406,0.371
			c0.49,0.096,1.031,0.139,1.611,0.139c0.717,0,1.336-0.09,1.862-0.278c0.526-0.188,0.958-0.446,1.298-0.78
			c0.343-0.337,0.594-0.744,0.76-1.229c0.163-0.481,0.246-1.019,0.246-1.611c0-0.285-0.011-0.556-0.033-0.815
			c-0.022-0.258-0.069-0.509-0.149-0.749c-0.075-0.242-0.185-0.473-0.326-0.69c-0.144-0.217-0.339-0.436-0.577-0.643
			c-0.648-0.551-1.328-1.037-2.042-1.467c-0.715-0.43-1.439-0.84-2.181-1.231c-0.742-0.396-1.484-0.795-2.229-1.193
			c-0.75-0.402-1.479-0.85-2.191-1.346c-0.384-0.271-0.728-0.55-1.029-0.829c-0.302-0.277-0.56-0.591-0.773-0.938
			c-0.215-0.346-0.376-0.736-0.488-1.17c-0.108-0.434-0.162-0.942-0.162-1.521c0-1.076,0.152-1.986,0.459-2.726
			c0.311-0.739,0.736-1.362,1.285-1.87c0.672-0.623,1.448-1.065,2.33-1.324c0.883-0.255,1.91-0.387,3.084-0.387
			c0.629,0,1.271,0.027,1.938,0.082c0.662,0.057,1.311,0.134,1.942,0.24c0.63,0.104,1.229,0.229,1.793,0.371
			c0.567,0.141,1.075,0.297,1.523,0.463c-0.077,0.887-0.169,1.78-0.271,2.681c-0.106,0.901-0.234,1.749-0.387,2.552
			c-0.231,0.021-0.43,0.035-0.593,0.04c-0.167,0.007-0.315,0.007-0.454,0c-0.139-0.005-0.28-0.015-0.428-0.024
			s-0.32-0.032-0.518-0.066l-0.264-3.26c-0.727-0.383-1.481-0.678-2.271-0.88c-0.792-0.202-1.571-0.307-2.341-0.307
			c-0.6,0-1.152,0.074-1.653,0.216c-0.498,0.145-0.931,0.359-1.292,0.652c-0.363,0.289-0.642,0.658-0.841,1.1
			c-0.198,0.448-0.295,0.977-0.295,1.592c0,0.436,0.055,0.832,0.165,1.184c0.109,0.351,0.278,0.678,0.501,0.979
			c0.224,0.302,0.512,0.587,0.865,0.848c0.349,0.263,0.766,0.527,1.25,0.789l5.679,3.196c0.957,0.524,1.695,1.049,2.217,1.562
			c0.518,0.516,0.902,1.031,1.152,1.549c0.244,0.516,0.392,1.034,0.443,1.555c0.051,0.523,0.071,1.057,0.071,1.605
			c0,0.623-0.071,1.192-0.22,1.7c-0.147,0.512-0.353,0.976-0.615,1.386c-0.266,0.414-0.575,0.773-0.924,1.085
			c-0.354,0.313-0.725,0.583-1.121,0.797c-0.457,0.259-0.936,0.451-1.422,0.595c-0.49,0.145-0.968,0.248-1.439,0.322
			c-0.473,0.07-0.918,0.113-1.336,0.133c-0.416,0.016-0.778,0.023-1.087,0.023c-0.634,0-1.309-0.064-2.022-0.188
			c-0.715-0.127-1.397-0.291-2.061-0.486c-0.656-0.196-1.261-0.414-1.81-0.65c-0.548-0.236-0.982-0.467-1.3-0.684L157.228,51.962z"
			/>
	</g>
</g>
</svg>
