<?xml version="1.0" encoding="utf-8"?>
<!-- Generator: Adobe Illustrator 14.0.0, SVG Export Plug-In . SVG Version: 6.00 Build 43363)  -->
<!DOCTYPE svg PUBLIC "-//W3C//DTD SVG 1.1//EN" "http://www.w3.org/Graphics/SVG/1.1/DTD/svg11.dtd">
<svg version="1.1" id="Layer_1" xmlns="http://www.w3.org/2000/svg" xmlns:xlink="http://www.w3.org/1999/xlink" x="0px" y="0px"
	 width="219px" height="150px" viewBox="0 0 219 150" enable-background="new 0 0 219 150" xml:space="preserve">
<g>
	<path fill="#417BAF" d="M21.431,9.641C16.372,40.861,7.83,71.375,2.645,102.569c-0.077,0.457,4.505,0.145,4.738-1.271
		c5.186-31.192,13.73-61.708,18.786-92.926C26.246,7.908,21.659,8.228,21.431,9.641L21.431,9.641z"/>
	<path fill="#417BAF" d="M13.94,23.807c6.867-8.286,19.552-12.591,30.021-12.702c11.467-0.121,17.813,10.139,15.213,20.729
		C54.881,49.322,26.015,60.99,9.764,58.409c-0.737-0.116-4.612,0.431-3.806,1.985c12.593,24.271,49.6,85.515,81.513,50.96
		c1.927-2.088-2.694-2.134-3.834-0.901c-27.471,29.746-62.388-30.995-72.938-51.328c-1.268,0.662-2.538,1.322-3.806,1.984
		c19.934,3.163,53.839-10.335,57.58-32.47c2.211-13.077-8.809-20.477-20.392-20.354C31.903,8.414,17.374,14.123,9.503,23.62
		C8.102,25.308,12.908,25.053,13.94,23.807L13.94,23.807z"/>
	<path fill="#417BAF" d="M42.154,68.174c-3.206,7.442-3.776,16.344,2.263,22.432c0.875,0.881,2.572,0.351,3.41-0.241
		c3.867-2.719,6.73-6.003,8.995-10.149c-1.563-0.064-3.128-0.129-4.691-0.191c0.989,19.981,18.919,1.22,25.39-4.579
		c-1.335-0.351-2.674-0.697-4.01-1.048c-2.245,23.165-9.109,45.664-9.121,69.059c0,2.639,4.563,1.989,4.819-0.292
		c1.963-17.362,7.823-34.006,8.809-51.496c0.704-12.504-0.579-31.602,9.585-40.823c9.97-9.046,11.261,9.542,10.705,15.366
		c-0.969,10.152-6.12,22.65-17.273,24.605c-1.562,0.275-2.54,1.995-1.34,3.188c13.057,12.987,40.749,20.177,46.966-3.156
		c0.661-2.484-3.202-2.888-4.291-1.127c-8.583,13.874,7.054,12.193,15.156,6.439c-1.254-0.037-2.509-0.076-3.762-0.116
		c1.244,2.067,2.658,4.017,3.901,6.083c0.702,1.171,2.905,0.942,3.761,0.115c11.171-10.792,26.312-16.166,37.77-26.763
		c10.222-9.452,17.803-21.614,22.693-34.581c0.958-2.539-3.165-2.658-4.291-1.128c-8.155,11.079-14.143,26.094-15.075,39.849
		c-1.028,15.15,11.136,16.312,22.594,11.439c2.977-1.264,0.353-4.113-2.167-3.042c-4.572,1.945-11.884,4.751-14.638-1.239
		c-2.047-4.448-0.858-10.28,0.074-14.85c2.154-10.565,6.815-21.865,13.229-30.573c-1.432-0.378-2.861-0.754-4.293-1.128
		c-5.267,13.965-13.589,26.208-24.851,36.031c-10.524,9.175-24.158,13.851-34.247,23.599c1.254,0.036,2.506,0.076,3.761,0.114
		c-1.24-2.068-2.657-4.017-3.901-6.082c-0.768-1.278-2.805-0.795-3.764-0.116c-4.365,3.104-13.439,6.427-7.935-2.469
		c-1.429-0.378-2.86-0.754-4.291-1.128c-5.384,20.201-28.026,11.659-38.78,0.962c-0.447,1.062-0.893,2.124-1.341,3.185
		c12.521-2.194,18.695-14.42,20.799-25.856c1.35-7.334,1.584-22.747-8.729-23.768c-14.26-1.414-18.362,19.178-19.585,29.115
		c-1.106,8.96-0.891,18.024-1.971,26.981c-1.729,14.386-6.471,28.234-8.098,42.661c1.606-0.098,3.213-0.194,4.819-0.292
		c0.013-23.396,6.876-45.895,9.123-69.059c0.199-2.064-2.944-2.006-4.012-1.046c-2.353,2.105-4.509,4.427-6.797,6.603
		c-3.866,3.679-10.129,9.029-10.573,0.07c-0.128-2.578-3.77-1.881-4.691-0.188c-1.919,3.51-4.359,6.133-7.633,8.436
		c1.138-0.08,2.275-0.16,3.413-0.239c-4.99-5.03-3.865-12.976-1.317-18.896C47.838,66.255,43.055,66.082,42.154,68.174
		L42.154,68.174z"/>
	<path fill="#417BAF" d="M174.598,65.498c12.512-0.153,25.021-0.305,37.531-0.458c0.908-0.012,5.361-1.833,3.109-1.803
		c-12.511,0.154-25.021,0.306-37.531,0.457C176.797,63.704,172.345,65.524,174.598,65.498L174.598,65.498z"/>
</g>
</svg>
