<?xml version="1.0" encoding="utf-8"?>
<!-- Generator: Adobe Illustrator 16.0.0, SVG Export Plug-In . SVG Version: 6.00 Build 0)  -->
<!DOCTYPE svg PUBLIC "-//W3C//DTD SVG 1.1//EN" "http://www.w3.org/Graphics/SVG/1.1/DTD/svg11.dtd">
<svg version="1.1" id="Layer_1" xmlns="http://www.w3.org/2000/svg" xmlns:xlink="http://www.w3.org/1999/xlink" x="0px" y="0px"
	 width="300px" height="20px" viewBox="0 0 300 20" enable-background="new 0 0 300 20" xml:space="preserve">
<g>
	<path fill="#FFFFFF" d="M4.115,4.857c0.701,0,1.311,0.125,1.824,0.385C6.45,5.496,6.905,5.935,7.312,6.551h0.052
		C7.327,5.806,7.312,5.067,7.312,4.346V0.856h0.872v13.897H7.607l-0.227-1.486H7.312c-0.742,1.109-1.796,1.664-3.177,1.664
		c-1.343,0-2.367-0.42-3.074-1.249C0.351,12.844,0,11.632,0,10.038c0-1.68,0.351-2.962,1.051-3.853
		C1.758,5.304,2.777,4.857,4.115,4.857z M4.115,5.663c-1.062,0-1.856,0.374-2.389,1.112c-0.535,0.748-0.8,1.825-0.8,3.242
		c0,2.748,1.072,4.132,3.209,4.132c1.091,0,1.898-0.324,2.411-0.961c0.512-0.637,0.767-1.685,0.767-3.15V9.889
		c0-1.504-0.249-2.587-0.756-3.244C6.052,5.993,5.239,5.663,4.115,5.663z"/>
	<path fill="#FFFFFF" d="M11.322,2.352c0-0.578,0.187-0.861,0.56-0.861c0.187,0,0.329,0.072,0.434,0.222
		c0.105,0.151,0.158,0.362,0.158,0.64c0,0.266-0.053,0.473-0.158,0.631c-0.105,0.154-0.247,0.23-0.434,0.23
		C11.509,3.213,11.322,2.924,11.322,2.352z M12.331,14.754h-0.883V5.05h0.883V14.754z"/>
	<path fill="#FFFFFF" d="M23.151,5.05v0.613l-2.008,0.125c0.539,0.666,0.803,1.394,0.803,2.196c0,0.935-0.312,1.694-0.933,2.272
		c-0.625,0.581-1.459,0.867-2.504,0.867c-0.438,0-0.748-0.015-0.932-0.05c-0.35,0.181-0.616,0.403-0.8,0.651
		c-0.187,0.245-0.276,0.511-0.276,0.797c0,0.304,0.116,0.532,0.351,0.669c0.235,0.149,0.634,0.219,1.181,0.219h1.7
		c1.054,0,1.86,0.214,2.419,0.643c0.56,0.421,0.841,1.052,0.841,1.887c0,1.025-0.419,1.813-1.25,2.371
		c-0.831,0.558-2.011,0.833-3.55,0.833c-1.215,0-2.161-0.234-2.831-0.707c-0.67-0.471-1.003-1.124-1.003-1.966
		c0-0.662,0.203-1.215,0.616-1.655c0.418-0.444,0.977-0.742,1.682-0.905c-0.286-0.126-0.52-0.304-0.699-0.528
		c-0.172-0.229-0.261-0.497-0.261-0.789c0-0.654,0.413-1.224,1.238-1.723c-0.564-0.225-1.003-0.593-1.317-1.09
		c-0.318-0.496-0.476-1.065-0.476-1.711c0-0.97,0.31-1.749,0.926-2.333c0.616-0.587,1.45-0.879,2.491-0.879
		c0.64,0,1.136,0.061,1.486,0.192H23.151z M15.293,16.396c0,1.331,0.993,2,2.973,2c2.546,0,3.821-0.814,3.821-2.441
		c0-0.578-0.197-1.002-0.594-1.265c-0.403-0.263-1.047-0.392-1.939-0.392h-1.588C16.181,14.298,15.293,14.993,15.293,16.396z
		 M16.035,8.069c0,0.751,0.227,1.338,0.687,1.749c0.454,0.415,1.06,0.622,1.824,0.622c0.811,0,1.427-0.207,1.859-0.616
		c0.435-0.414,0.649-1.01,0.649-1.787c0-0.826-0.226-1.448-0.666-1.863c-0.442-0.408-1.066-0.622-1.863-0.622
		c-0.775,0-1.381,0.229-1.827,0.666C16.256,6.662,16.035,7.278,16.035,8.069z"/>
	<path fill="#FFFFFF" d="M25.015,2.352c0-0.578,0.188-0.861,0.564-0.861c0.184,0,0.33,0.072,0.435,0.222
		c0.104,0.151,0.156,0.362,0.156,0.64c0,0.266-0.053,0.473-0.156,0.631c-0.105,0.154-0.251,0.23-0.435,0.23
		C25.204,3.213,25.015,2.924,25.015,2.352z M26.024,14.754h-0.883V5.05h0.883V14.754z"/>
	<path fill="#FFFFFF" d="M31.837,14.149c0.564,0,1.048-0.056,1.469-0.149v0.716c-0.43,0.141-0.927,0.216-1.486,0.216
		c-0.856,0-1.49-0.23-1.897-0.691c-0.407-0.456-0.612-1.174-0.612-2.158V5.814h-1.436V5.298l1.436-0.4l0.445-2.201h0.46V5.05h2.849
		v0.765h-2.849v6.145c0,0.739,0.13,1.291,0.392,1.647C30.868,13.963,31.276,14.149,31.837,14.149z"/>
	<path fill="#FFFFFF" d="M41.296,14.754l-0.223-1.539h-0.075c-0.485,0.622-0.988,1.066-1.504,1.326
		c-0.514,0.26-1.125,0.391-1.825,0.391c-0.952,0-1.694-0.245-2.222-0.732c-0.532-0.494-0.793-1.165-0.793-2.03
		c0-0.942,0.391-1.682,1.18-2.204c0.79-0.523,1.93-0.801,3.424-0.833l1.85-0.052V8.438c0-0.923-0.187-1.621-0.563-2.088
		c-0.378-0.474-0.978-0.707-1.813-0.707c-0.898,0-1.83,0.251-2.791,0.753l-0.335-0.771c1.067-0.502,2.123-0.753,3.163-0.753
		c1.066,0,1.86,0.277,2.389,0.832s0.789,1.416,0.789,2.593v6.457H41.296z M37.723,14.123c1.04,0,1.854-0.289,2.448-0.885
		c0.602-0.593,0.901-1.416,0.901-2.468V9.812l-1.698,0.076c-1.359,0.062-2.333,0.274-2.912,0.637
		c-0.581,0.359-0.876,0.92-0.876,1.679c0,0.61,0.191,1.078,0.561,1.42C36.52,13.957,37.047,14.123,37.723,14.123z"/>
	<path fill="#FFFFFF" d="M45.974,14.754h-0.883V0.856h0.883V14.754z"/>
	<path fill="#FFFFFF" d="M60.745,14.754V8.455c0-0.973-0.21-1.683-0.616-2.126c-0.413-0.447-1.051-0.666-1.916-0.666
		c-1.16,0-2.012,0.292-2.55,0.879c-0.537,0.587-0.804,1.536-0.804,2.854v5.358h-0.882V0.856h0.882v4.421l-0.047,1.244h0.063
		c0.365-0.587,0.82-1.011,1.375-1.271c0.552-0.263,1.243-0.394,2.063-0.394c2.201,0,3.303,1.186,3.303,3.545v6.352H60.745z"/>
	<path fill="#FFFFFF" d="M68.686,14.932c-1.414,0-2.515-0.435-3.304-1.308c-0.79-0.867-1.183-2.085-1.183-3.65
		c0-1.545,0.383-2.792,1.146-3.721c0.762-0.929,1.787-1.396,3.078-1.396c1.146,0,2.043,0.399,2.708,1.2
		c0.658,0.791,0.988,1.88,0.988,3.25v0.71h-6.987c0.009,1.334,0.318,2.354,0.929,3.058c0.612,0.7,1.486,1.048,2.625,1.048
		c0.552,0,1.04-0.035,1.457-0.114c0.417-0.075,0.951-0.245,1.595-0.499v0.803c-0.549,0.24-1.056,0.403-1.517,0.488
		C69.756,14.889,69.243,14.932,68.686,14.932z M68.422,5.643c-0.934,0-1.682,0.307-2.247,0.926
		c-0.571,0.613-0.898,1.501-0.993,2.666h6.001c0-1.127-0.247-2.009-0.733-2.64C69.964,5.961,69.286,5.643,68.422,5.643z"/>
	<path fill="#FFFFFF" d="M80.688,14.754l-0.218-1.539h-0.074c-0.489,0.622-0.992,1.066-1.504,1.326
		c-0.517,0.26-1.125,0.391-1.825,0.391c-0.955,0-1.692-0.245-2.226-0.732c-0.527-0.494-0.794-1.165-0.794-2.03
		c0-0.942,0.398-1.682,1.186-2.204c0.784-0.523,1.927-0.801,3.422-0.833l1.846-0.052V8.438c0-0.923-0.19-1.621-0.558-2.088
		c-0.378-0.474-0.984-0.707-1.813-0.707c-0.901,0-1.83,0.251-2.796,0.753l-0.33-0.771c1.064-0.502,2.116-0.753,3.163-0.753
		c1.066,0,1.86,0.277,2.388,0.832c0.528,0.555,0.789,1.416,0.789,2.593v6.457H80.688z M77.119,14.123
		c1.036,0,1.852-0.289,2.452-0.885c0.597-0.593,0.899-1.416,0.899-2.468V9.812l-1.7,0.076c-1.362,0.062-2.334,0.274-2.916,0.637
		c-0.582,0.359-0.866,0.92-0.866,1.679c0,0.61,0.181,1.078,0.554,1.42C75.913,13.957,76.439,14.123,77.119,14.123z"/>
	<path fill="#FFFFFF" d="M88.038,4.857c0.701,0,1.314,0.125,1.824,0.385c0.513,0.254,0.967,0.692,1.374,1.309h0.053
		c-0.038-0.745-0.053-1.483-0.053-2.205V0.856h0.874v13.897h-0.58l-0.225-1.486h-0.069c-0.739,1.109-1.796,1.664-3.176,1.664
		c-1.345,0-2.368-0.42-3.075-1.249c-0.711-0.839-1.06-2.051-1.06-3.645c0-1.68,0.349-2.962,1.05-3.853
		C85.682,5.304,86.701,4.857,88.038,4.857z M88.038,5.663c-1.06,0-1.854,0.374-2.389,1.112c-0.533,0.748-0.8,1.825-0.8,3.242
		c0,2.748,1.072,4.132,3.211,4.132c1.091,0,1.897-0.324,2.408-0.961c0.514-0.637,0.768-1.685,0.768-3.15V9.889
		c0-1.504-0.248-2.587-0.756-3.244C89.978,5.993,89.161,5.663,88.038,5.663z"/>
	<path fill="#FFFFFF" d="M102.14,14.754V8.455c0-0.973-0.204-1.683-0.619-2.126c-0.406-0.447-1.044-0.666-1.907-0.666
		c-1.159,0-2.012,0.292-2.549,0.879c-0.539,0.587-0.809,1.536-0.809,2.854v5.358h-0.885V0.856h0.885v4.421l-0.042,1.244h0.062
		c0.361-0.587,0.821-1.011,1.374-1.271c0.553-0.263,1.237-0.394,2.06-0.394c2.205,0,3.308,1.186,3.308,3.545v6.352H102.14z"/>
	<path fill="#FFFFFF" d="M106.927,5.05v6.275c0,0.981,0.206,1.691,0.612,2.135c0.413,0.447,1.051,0.663,1.914,0.663
		c1.154,0,2.006-0.289,2.55-0.873c0.544-0.584,0.816-1.536,0.816-2.848V5.05h0.877v9.704h-0.753l-0.161-1.344h-0.052
		c-0.634,1.014-1.751,1.521-3.367,1.521c-2.209,0-3.313-1.183-3.313-3.545V5.05H106.927z"/>
	<path fill="#FFFFFF" d="M123.709,14.754V8.455c0-0.973-0.203-1.683-0.616-2.126c-0.409-0.447-1.045-0.666-1.907-0.666
		c-1.161,0-2.012,0.292-2.551,0.879c-0.538,0.587-0.812,1.536-0.812,2.854v5.358h-0.883V5.05h0.753l0.167,1.323h0.053
		c0.633-1.008,1.758-1.516,3.367-1.516c2.207,0,3.309,1.186,3.309,3.545v6.352H123.709z"/>
	<path fill="#FFFFFF" d="M130.292,14.149c0.562,0,1.048-0.056,1.466-0.149v0.716c-0.427,0.141-0.923,0.216-1.484,0.216
		c-0.857,0-1.492-0.23-1.896-0.691c-0.408-0.456-0.613-1.174-0.613-2.158V5.814h-1.436V5.298l1.436-0.4l0.445-2.201h0.46V5.05h2.849
		v0.765h-2.849v6.145c0,0.739,0.13,1.291,0.393,1.647C129.323,13.963,129.731,14.149,130.292,14.149z"/>
	<path fill="#FFFFFF" d="M137.774,14.932c-1.411,0-2.507-0.435-3.297-1.308c-0.789-0.867-1.183-2.085-1.183-3.65
		c0-1.545,0.378-2.792,1.14-3.721c0.765-0.929,1.789-1.396,3.085-1.396c1.139,0,2.042,0.399,2.701,1.2
		c0.663,0.791,0.993,1.88,0.993,3.25v0.71h-6.993c0.01,1.334,0.323,2.354,0.935,3.058c0.607,0.7,1.485,1.048,2.618,1.048
		c0.555,0,1.04-0.035,1.458-0.114c0.424-0.075,0.952-0.245,1.593-0.499v0.803c-0.543,0.24-1.048,0.403-1.514,0.488
		C138.846,14.889,138.334,14.932,137.774,14.932z M137.52,5.643c-0.935,0-1.688,0.307-2.253,0.926
		c-0.565,0.613-0.894,1.501-0.993,2.666h6.004c0-1.127-0.244-2.009-0.737-2.64C139.054,5.961,138.381,5.643,137.52,5.643z"/>
	<path fill="#FFFFFF" d="M147.711,4.857c0.412,0,0.852,0.043,1.322,0.125l-0.167,0.847c-0.409-0.096-0.827-0.151-1.26-0.151
		c-0.826,0-1.505,0.351-2.038,1.057c-0.529,0.701-0.796,1.586-0.796,2.661v5.358h-0.88V5.05h0.75l0.089,1.746h0.062
		c0.398-0.715,0.822-1.215,1.276-1.504C146.523,5,147.066,4.857,147.711,4.857z"/>
	<path fill="#FFFFFF" d="M157.03,12.222c0,0.876-0.335,1.539-0.993,2.007c-0.66,0.467-1.599,0.703-2.812,0.703
		c-1.296,0-2.326-0.201-3.088-0.602v-0.951c0.977,0.484,2.006,0.729,3.088,0.729c0.955,0,1.683-0.163,2.184-0.479
		c0.498-0.321,0.744-0.745,0.744-1.271c0-0.488-0.201-0.899-0.591-1.235c-0.397-0.333-1.052-0.657-1.955-0.981
		c-0.967-0.351-1.651-0.654-2.044-0.905c-0.392-0.254-0.689-0.537-0.889-0.855c-0.198-0.318-0.297-0.707-0.297-1.168
		c0-0.728,0.302-1.297,0.915-1.724c0.61-0.423,1.463-0.633,2.556-0.633c1.049,0,2.043,0.195,2.984,0.59l-0.33,0.803
		c-0.951-0.392-1.842-0.587-2.654-0.587c-0.791,0-1.416,0.131-1.881,0.395c-0.465,0.26-0.697,0.619-0.697,1.086
		c0,0.505,0.179,0.911,0.538,1.215c0.362,0.304,1.067,0.646,2.111,1.017c0.879,0.318,1.511,0.599,1.914,0.85
		c0.397,0.257,0.694,0.546,0.894,0.864C156.93,11.413,157.03,11.79,157.03,12.222z"/>
	<path fill="#4D4E50" d="M168.235,7.932h3.872v0.73h-3.872v3.86H167.5v-3.86h-3.857v-0.73h3.857V4.054h0.735V7.932z"/>
	<path fill="#FFFFFF" d="M182.029,14.149c0.561,0,1.047-0.056,1.465-0.149v0.716c-0.43,0.141-0.922,0.216-1.482,0.216
		c-0.857,0-1.488-0.23-1.895-0.691c-0.409-0.456-0.612-1.174-0.612-2.158V5.814h-1.442V5.298l1.442-0.4l0.444-2.201h0.453V5.05
		h2.852v0.765h-2.852v6.145c0,0.739,0.131,1.291,0.395,1.647C181.059,13.963,181.469,14.149,182.029,14.149z"/>
	<path fill="#FFFFFF" d="M191.484,14.754l-0.219-1.539h-0.074c-0.492,0.622-0.992,1.066-1.504,1.326
		c-0.518,0.26-1.125,0.391-1.826,0.391c-0.957,0-1.693-0.245-2.227-0.732c-0.529-0.494-0.795-1.165-0.795-2.03
		c0-0.942,0.398-1.682,1.188-2.204c0.785-0.523,1.93-0.801,3.424-0.833l1.846-0.052V8.438c0-0.923-0.189-1.621-0.561-2.088
		c-0.377-0.474-0.98-0.707-1.812-0.707c-0.9,0-1.83,0.251-2.797,0.753l-0.328-0.771c1.066-0.502,2.115-0.753,3.162-0.753
		c1.064,0,1.857,0.277,2.387,0.832c0.527,0.555,0.791,1.416,0.791,2.593v6.457H191.484z M187.914,14.123
		c1.035,0,1.852-0.289,2.451-0.885c0.596-0.593,0.9-1.416,0.9-2.468V9.812l-1.699,0.076c-1.363,0.062-2.338,0.274-2.916,0.637
		c-0.58,0.359-0.869,0.92-0.869,1.679c0,0.61,0.184,1.078,0.555,1.42C186.707,13.957,187.234,14.123,187.914,14.123z"/>
	<path fill="#FFFFFF" d="M196.162,14.754h-0.881V0.856h0.881V14.754z"/>
	<path fill="#FFFFFF" d="M203.334,14.932c-1.412,0-2.51-0.435-3.299-1.308c-0.791-0.867-1.18-2.085-1.18-3.65
		c0-1.545,0.373-2.792,1.139-3.721c0.762-0.929,1.787-1.396,3.084-1.396c1.137,0,2.043,0.399,2.701,1.2
		c0.664,0.791,0.994,1.88,0.994,3.25v0.71h-6.996c0.012,1.334,0.326,2.354,0.938,3.058c0.605,0.7,1.484,1.048,2.619,1.048
		c0.551,0,1.041-0.035,1.459-0.114c0.424-0.075,0.949-0.245,1.594-0.499v0.803c-0.545,0.24-1.051,0.403-1.516,0.488
		C204.404,14.889,203.891,14.932,203.334,14.932z M203.078,5.643c-0.936,0-1.689,0.307-2.254,0.926
		c-0.564,0.613-0.895,1.501-0.992,2.666h6.004c0-1.127-0.246-2.009-0.736-2.64C204.613,5.961,203.938,5.643,203.078,5.643z"/>
	<path fill="#FFFFFF" d="M216.217,14.754V8.455c0-0.973-0.201-1.683-0.617-2.126c-0.408-0.447-1.043-0.666-1.908-0.666
		c-1.16,0-2.012,0.292-2.549,0.879c-0.539,0.587-0.811,1.536-0.811,2.854v5.358h-0.883V5.05h0.752l0.168,1.323h0.053
		c0.629-1.008,1.756-1.516,3.365-1.516c2.205,0,3.309,1.186,3.309,3.545v6.352H216.217z"/>
	<path fill="#FFFFFF" d="M222.797,14.149c0.564,0,1.051-0.056,1.469-0.149v0.716c-0.43,0.141-0.924,0.216-1.484,0.216
		c-0.857,0-1.49-0.23-1.896-0.691c-0.408-0.456-0.611-1.174-0.611-2.158V5.814h-1.439V5.298l1.439-0.4l0.445-2.201h0.457V5.05h2.85
		v0.765h-2.85v6.145c0,0.739,0.131,1.291,0.393,1.647S222.238,14.149,222.797,14.149z"/>
	<path fill="#FFFFFF" d="M237.01,14.754l-0.227-1.539h-0.072c-0.488,0.622-0.99,1.066-1.508,1.326
		c-0.51,0.26-1.121,0.391-1.822,0.391c-0.951,0-1.693-0.245-2.221-0.732c-0.535-0.494-0.795-1.165-0.795-2.03
		c0-0.942,0.395-1.682,1.182-2.204c0.789-0.523,1.928-0.801,3.422-0.833l1.85-0.052V8.438c0-0.923-0.186-1.621-0.562-2.088
		c-0.377-0.474-0.977-0.707-1.814-0.707c-0.898,0-1.828,0.251-2.791,0.753l-0.334-0.771c1.066-0.502,2.123-0.753,3.162-0.753
		c1.066,0,1.859,0.277,2.387,0.832c0.531,0.555,0.791,1.416,0.791,2.593v6.457H237.01z M233.434,14.123
		c1.041,0,1.855-0.289,2.451-0.885c0.602-0.593,0.898-1.416,0.898-2.468V9.812l-1.699,0.076c-1.357,0.062-2.332,0.274-2.912,0.637
		c-0.578,0.359-0.873,0.92-0.873,1.679c0,0.61,0.191,1.078,0.562,1.42C232.23,13.957,232.76,14.123,233.434,14.123z"/>
	<path fill="#FFFFFF" d="M244.355,4.857c0.701,0,1.309,0.125,1.82,0.385c0.514,0.254,0.973,0.692,1.373,1.309h0.053
		c-0.029-0.745-0.053-1.483-0.053-2.205V0.856h0.879v13.897h-0.578l-0.225-1.486h-0.076c-0.736,1.109-1.797,1.664-3.176,1.664
		c-1.338,0-2.363-0.42-3.074-1.249c-0.703-0.839-1.061-2.051-1.061-3.645c0-1.68,0.352-2.962,1.055-3.853
		C241.994,5.304,243.014,4.857,244.355,4.857z M244.355,5.663c-1.059,0-1.855,0.374-2.389,1.112
		c-0.531,0.748-0.797,1.825-0.797,3.242c0,2.748,1.066,4.132,3.203,4.132c1.096,0,1.898-0.324,2.41-0.961s0.766-1.685,0.766-3.15
		V9.889c0-1.504-0.248-2.587-0.752-3.244C246.297,5.993,245.48,5.663,244.355,5.663z"/>
	<path fill="#FFFFFF" d="M253.812,14.754l-3.752-9.704h0.914l2.51,6.594c0.328,0.847,0.578,1.583,0.748,2.214h0.051
		c0.244-0.809,0.496-1.551,0.752-2.231l2.51-6.576h0.908l-3.748,9.704H253.812z"/>
	<path fill="#FFFFFF" d="M259.953,2.352c0-0.578,0.189-0.861,0.564-0.861c0.184,0,0.33,0.072,0.436,0.222
		c0.104,0.151,0.154,0.362,0.154,0.64c0,0.266-0.051,0.473-0.154,0.631c-0.105,0.154-0.252,0.23-0.436,0.23
		C260.143,3.213,259.953,2.924,259.953,2.352z M260.961,14.754h-0.881V5.05h0.881V14.754z"/>
	<path fill="#FFFFFF" d="M270.234,12.222c0,0.876-0.338,1.539-0.994,2.007c-0.658,0.467-1.6,0.703-2.812,0.703
		c-1.293,0-2.324-0.201-3.088-0.602v-0.951c0.979,0.484,2.008,0.729,3.088,0.729c0.959,0,1.686-0.163,2.186-0.479
		c0.496-0.321,0.744-0.745,0.744-1.271c0-0.488-0.201-0.899-0.59-1.235c-0.398-0.333-1.053-0.657-1.957-0.981
		c-0.969-0.351-1.65-0.654-2.045-0.905c-0.393-0.254-0.689-0.537-0.887-0.855c-0.199-0.318-0.299-0.707-0.299-1.168
		c0-0.728,0.305-1.297,0.914-1.724c0.613-0.423,1.463-0.633,2.557-0.633c1.051,0,2.043,0.195,2.984,0.59l-0.33,0.803
		c-0.949-0.392-1.84-0.587-2.654-0.587c-0.789,0-1.416,0.131-1.879,0.395c-0.469,0.26-0.697,0.619-0.697,1.086
		c0,0.505,0.178,0.911,0.539,1.215c0.359,0.304,1.064,0.646,2.111,1.017c0.877,0.318,1.51,0.599,1.91,0.85
		c0.398,0.257,0.699,0.546,0.895,0.864C270.135,11.413,270.234,11.79,270.234,12.222z"/>
	<path fill="#FFFFFF" d="M276.654,14.932c-1.412,0-2.518-0.435-3.305-1.308c-0.791-0.867-1.184-2.085-1.184-3.65
		c0-1.545,0.383-2.792,1.148-3.721c0.76-0.929,1.783-1.396,3.076-1.396c1.146,0,2.045,0.399,2.709,1.2
		c0.658,0.791,0.986,1.88,0.986,3.25v0.71h-6.988c0.012,1.334,0.318,2.354,0.932,3.058c0.611,0.7,1.484,1.048,2.625,1.048
		c0.553,0,1.037-0.035,1.457-0.114c0.416-0.075,0.949-0.245,1.592-0.499v0.803c-0.545,0.24-1.055,0.403-1.516,0.488
		C277.725,14.889,277.211,14.932,276.654,14.932z M276.391,5.643c-0.934,0-1.684,0.307-2.248,0.926
		c-0.568,0.613-0.896,1.501-0.992,2.666h6.002c0-1.127-0.246-2.009-0.734-2.64C277.932,5.961,277.254,5.643,276.391,5.643z"/>
	<path fill="#FFFFFF" d="M286.588,4.857c0.414,0,0.854,0.043,1.322,0.125l-0.166,0.847c-0.41-0.096-0.828-0.151-1.262-0.151
		c-0.824,0-1.504,0.351-2.037,1.057c-0.527,0.701-0.793,1.586-0.793,2.661v5.358h-0.885V5.05h0.752l0.088,1.746h0.064
		c0.398-0.715,0.82-1.215,1.277-1.504C285.402,5,285.943,4.857,286.588,4.857z"/>
	<path fill="#FFFFFF" d="M295.902,12.222c0,0.876-0.33,1.539-0.988,2.007c-0.662,0.467-1.598,0.703-2.818,0.703
		c-1.295,0-2.324-0.201-3.088-0.602v-0.951c0.979,0.484,2.006,0.729,3.088,0.729c0.963,0,1.689-0.163,2.186-0.479
		c0.496-0.321,0.748-0.745,0.748-1.271c0-0.488-0.197-0.899-0.596-1.235c-0.396-0.333-1.045-0.657-1.949-0.981
		c-0.973-0.351-1.652-0.654-2.045-0.905c-0.396-0.254-0.689-0.537-0.889-0.855c-0.203-0.318-0.303-0.707-0.303-1.168
		c0-0.728,0.309-1.297,0.916-1.724c0.611-0.423,1.463-0.633,2.561-0.633c1.047,0,2.045,0.195,2.984,0.59l-0.334,0.803
		c-0.951-0.392-1.838-0.587-2.65-0.587c-0.795,0-1.424,0.131-1.887,0.395c-0.459,0.26-0.693,0.619-0.693,1.086
		c0,0.505,0.18,0.911,0.543,1.215c0.354,0.304,1.059,0.646,2.111,1.017c0.869,0.318,1.51,0.599,1.906,0.85
		c0.402,0.257,0.701,0.546,0.9,0.864C295.803,11.413,295.902,11.79,295.902,12.222z"/>
</g>
</svg>
