<?xml version="1.0" encoding="utf-8"?>
<!-- Generator: Adobe Illustrator 14.0.0, SVG Export Plug-In . SVG Version: 6.00 Build 43363)  -->
<!DOCTYPE svg PUBLIC "-//W3C//DTD SVG 1.1//EN" "http://www.w3.org/Graphics/SVG/1.1/DTD/svg11.dtd">
<svg version="1.1" id="Layer_1" xmlns="http://www.w3.org/2000/svg" xmlns:xlink="http://www.w3.org/1999/xlink" x="0px" y="0px"
	 width="160.083px" height="39.25px" viewBox="-1.334 0 160.083 39.25" enable-background="new -1.334 0 160.083 39.25"
	 xml:space="preserve">
<g>
	<path fill="#FFFFFF" d="M4.115,4.857c0.701,0,1.311,0.125,1.824,0.385C6.45,5.496,6.905,5.935,7.312,6.551h0.052
		C7.327,5.806,7.312,5.067,7.312,4.346v-3.49h0.872v13.897H7.607L7.38,13.268H7.312c-0.742,1.108-1.796,1.664-3.178,1.664
		c-1.343,0-2.366-0.42-3.073-1.25C0.351,12.844,0,11.632,0,10.038c0-1.68,0.352-2.962,1.051-3.853
		C1.758,5.304,2.777,4.857,4.115,4.857z M4.115,5.663c-1.062,0-1.856,0.374-2.389,1.112C1.191,7.523,0.926,8.6,0.926,10.017
		c0,2.749,1.072,4.131,3.209,4.131c1.092,0,1.898-0.323,2.411-0.961c0.513-0.637,0.768-1.685,0.768-3.149V9.889
		c0-1.504-0.249-2.587-0.756-3.244C6.052,5.993,5.239,5.663,4.115,5.663z"/>
	<path fill="#FFFFFF" d="M11.322,2.352c0-0.578,0.187-0.861,0.56-0.861c0.188,0,0.329,0.072,0.435,0.222
		c0.104,0.151,0.158,0.362,0.158,0.64c0,0.266-0.054,0.473-0.158,0.631c-0.105,0.154-0.247,0.23-0.435,0.23
		C11.509,3.213,11.322,2.924,11.322,2.352z M12.331,14.754h-0.883V5.05h0.883V14.754z"/>
	<path fill="#FFFFFF" d="M23.151,5.05v0.613l-2.008,0.125c0.539,0.666,0.803,1.394,0.803,2.196c0,0.935-0.312,1.694-0.933,2.272
		c-0.625,0.581-1.459,0.867-2.505,0.867c-0.438,0-0.747-0.016-0.932-0.051c-0.35,0.182-0.616,0.404-0.8,0.652
		c-0.188,0.244-0.276,0.51-0.276,0.797c0,0.304,0.116,0.531,0.352,0.668c0.234,0.149,0.634,0.22,1.181,0.22h1.7
		c1.054,0,1.859,0.214,2.419,0.644c0.56,0.42,0.841,1.051,0.841,1.887c0,1.024-0.419,1.812-1.25,2.371
		c-0.831,0.558-2.011,0.832-3.55,0.832c-1.215,0-2.161-0.233-2.831-0.707c-0.67-0.471-1.003-1.123-1.003-1.965
		c0-0.662,0.203-1.216,0.616-1.656c0.418-0.443,0.977-0.742,1.682-0.904c-0.286-0.126-0.52-0.305-0.699-0.528
		c-0.172-0.229-0.261-0.497-0.261-0.788c0-0.654,0.413-1.225,1.238-1.724c-0.564-0.226-1.003-0.593-1.317-1.09
		c-0.318-0.496-0.476-1.065-0.476-1.711c0-0.97,0.31-1.749,0.926-2.333c0.616-0.587,1.45-0.879,2.491-0.879
		c0.64,0,1.136,0.061,1.485,0.192L23.151,5.05L23.151,5.05z M15.293,16.396c0,1.33,0.993,2,2.974,2c2.546,0,3.82-0.814,3.82-2.441
		c0-0.578-0.196-1.002-0.594-1.266c-0.403-0.262-1.047-0.392-1.938-0.392h-1.589C16.181,14.298,15.293,14.993,15.293,16.396z
		 M16.035,8.069c0,0.751,0.228,1.338,0.688,1.749c0.453,0.415,1.06,0.622,1.823,0.622c0.812,0,1.428-0.207,1.859-0.616
		c0.435-0.414,0.649-1.01,0.649-1.787c0-0.826-0.227-1.448-0.666-1.863c-0.442-0.408-1.066-0.622-1.863-0.622
		c-0.775,0-1.381,0.229-1.827,0.666C16.256,6.662,16.035,7.278,16.035,8.069z"/>
	<path fill="#FFFFFF" d="M25.015,2.352c0-0.578,0.188-0.861,0.563-0.861c0.185,0,0.33,0.072,0.436,0.222
		c0.104,0.151,0.155,0.362,0.155,0.64c0,0.266-0.053,0.473-0.155,0.631c-0.105,0.154-0.251,0.23-0.436,0.23
		C25.204,3.213,25.015,2.924,25.015,2.352z M26.024,14.754h-0.883V5.05h0.883V14.754z"/>
	<path fill="#FFFFFF" d="M31.837,14.148c0.564,0,1.048-0.055,1.47-0.148v0.716c-0.431,0.142-0.928,0.216-1.486,0.216
		c-0.856,0-1.49-0.229-1.897-0.69c-0.406-0.456-0.611-1.175-0.611-2.158V5.814h-1.437V5.298l1.437-0.4l0.444-2.201h0.46V5.05h2.85
		v0.765h-2.85v6.145c0,0.739,0.131,1.291,0.393,1.647C30.868,13.963,31.276,14.148,31.837,14.148z"/>
	<path fill="#FFFFFF" d="M41.296,14.754l-0.223-1.539h-0.075c-0.484,0.622-0.988,1.066-1.504,1.326
		c-0.514,0.26-1.125,0.391-1.825,0.391c-0.952,0-1.693-0.244-2.222-0.731c-0.532-0.494-0.793-1.165-0.793-2.03
		c0-0.941,0.391-1.682,1.18-2.204c0.79-0.523,1.931-0.801,3.424-0.833l1.851-0.052V8.438c0-0.923-0.188-1.621-0.563-2.088
		c-0.378-0.474-0.978-0.707-1.812-0.707c-0.898,0-1.83,0.251-2.791,0.753l-0.335-0.771c1.066-0.502,2.123-0.753,3.163-0.753
		c1.065,0,1.859,0.277,2.389,0.832c0.529,0.555,0.789,1.416,0.789,2.593v6.457H41.296z M37.723,14.123
		c1.04,0,1.854-0.289,2.447-0.885c0.603-0.594,0.901-1.416,0.901-2.469V9.812l-1.698,0.076c-1.358,0.062-2.333,0.274-2.912,0.637
		c-0.581,0.358-0.876,0.92-0.876,1.679c0,0.61,0.191,1.077,0.562,1.42C36.52,13.957,37.047,14.123,37.723,14.123z"/>
	<path fill="#FFFFFF" d="M45.974,14.754h-0.884V0.856h0.884V14.754z"/>
	<path fill="#FFFFFF" d="M60.745,14.754V8.455c0-0.973-0.21-1.683-0.616-2.126c-0.413-0.447-1.051-0.666-1.916-0.666
		c-1.159,0-2.012,0.292-2.55,0.879c-0.537,0.587-0.804,1.536-0.804,2.854v5.358h-0.882V0.856h0.882v4.421l-0.047,1.244h0.062
		c0.365-0.587,0.82-1.011,1.375-1.271c0.552-0.263,1.243-0.394,2.063-0.394c2.201,0,3.303,1.186,3.303,3.545v6.352L60.745,14.754
		L60.745,14.754z"/>
	<path fill="#FFFFFF" d="M68.686,14.932c-1.414,0-2.516-0.435-3.305-1.308c-0.79-0.867-1.183-2.085-1.183-3.65
		c0-1.545,0.383-2.792,1.146-3.721c0.762-0.929,1.786-1.396,3.077-1.396c1.146,0,2.043,0.399,2.708,1.2
		c0.658,0.791,0.988,1.88,0.988,3.25v0.71h-6.987c0.01,1.334,0.318,2.354,0.93,3.058c0.611,0.7,1.485,1.048,2.625,1.048
		c0.552,0,1.04-0.035,1.457-0.114c0.417-0.075,0.951-0.245,1.595-0.499v0.803c-0.549,0.24-1.056,0.403-1.517,0.488
		C69.756,14.889,69.243,14.932,68.686,14.932z M68.422,5.643c-0.934,0-1.682,0.307-2.247,0.926c-0.57,0.613-0.897,1.501-0.992,2.666
		h6.001c0-1.127-0.247-2.009-0.733-2.64C69.964,5.961,69.286,5.643,68.422,5.643z"/>
	<path fill="#FFFFFF" d="M80.688,14.754l-0.218-1.539h-0.074c-0.489,0.622-0.992,1.066-1.504,1.326
		c-0.518,0.26-1.125,0.391-1.825,0.391c-0.955,0-1.692-0.244-2.227-0.731c-0.526-0.494-0.794-1.165-0.794-2.03
		c0-0.941,0.398-1.682,1.187-2.204c0.784-0.523,1.927-0.801,3.422-0.833l1.846-0.052V8.438c0-0.923-0.189-1.621-0.558-2.088
		c-0.378-0.474-0.984-0.707-1.813-0.707c-0.9,0-1.83,0.251-2.796,0.753l-0.33-0.771c1.064-0.502,2.116-0.753,3.163-0.753
		c1.066,0,1.86,0.277,2.389,0.832c0.527,0.555,0.789,1.416,0.789,2.593v6.457H80.688z M77.119,14.123
		c1.036,0,1.853-0.289,2.452-0.885c0.597-0.594,0.899-1.416,0.899-2.469V9.812l-1.7,0.076c-1.362,0.062-2.334,0.274-2.916,0.637
		c-0.582,0.358-0.866,0.92-0.866,1.679c0,0.61,0.181,1.077,0.554,1.42C75.913,13.957,76.439,14.123,77.119,14.123z"/>
	<path fill="#FFFFFF" d="M88.038,4.857c0.701,0,1.314,0.125,1.824,0.385c0.513,0.254,0.967,0.692,1.374,1.309h0.053
		c-0.038-0.745-0.053-1.483-0.053-2.205v-3.49h0.874v13.897h-0.58l-0.225-1.485h-0.069c-0.739,1.108-1.796,1.664-3.176,1.664
		c-1.346,0-2.368-0.42-3.075-1.25c-0.711-0.838-1.061-2.051-1.061-3.645c0-1.68,0.35-2.962,1.051-3.853
		C85.682,5.304,86.701,4.857,88.038,4.857z M88.038,5.663c-1.06,0-1.854,0.374-2.389,1.112c-0.533,0.748-0.8,1.825-0.8,3.242
		c0,2.749,1.071,4.131,3.211,4.131c1.091,0,1.896-0.323,2.407-0.961c0.515-0.637,0.769-1.685,0.769-3.149V9.889
		c0-1.504-0.248-2.587-0.756-3.244C89.978,5.993,89.161,5.663,88.038,5.663z"/>
	<path fill="#FFFFFF" d="M102.14,14.754V8.455c0-0.973-0.204-1.683-0.619-2.126c-0.406-0.447-1.044-0.666-1.907-0.666
		c-1.159,0-2.012,0.292-2.549,0.879c-0.539,0.587-0.81,1.536-0.81,2.854v5.358h-0.885V0.856h0.885v4.421l-0.042,1.244h0.062
		c0.361-0.587,0.821-1.011,1.374-1.271c0.553-0.263,1.237-0.394,2.06-0.394c2.205,0,3.309,1.186,3.309,3.545v6.352L102.14,14.754
		L102.14,14.754z"/>
	<path fill="#FFFFFF" d="M106.927,5.05v6.275c0,0.981,0.206,1.69,0.612,2.135c0.413,0.446,1.051,0.663,1.914,0.663
		c1.154,0,2.006-0.289,2.55-0.873s0.816-1.536,0.816-2.848V5.05h0.877v9.704h-0.753l-0.161-1.344h-0.052
		c-0.634,1.014-1.751,1.521-3.367,1.521c-2.209,0-3.313-1.184-3.313-3.545V5.05H106.927z"/>
	<path fill="#FFFFFF" d="M123.709,14.754V8.455c0-0.973-0.203-1.683-0.616-2.126c-0.408-0.447-1.045-0.666-1.906-0.666
		c-1.161,0-2.013,0.292-2.552,0.879c-0.537,0.587-0.812,1.536-0.812,2.854v5.358h-0.883V5.05h0.753l0.167,1.323h0.053
		c0.633-1.008,1.758-1.516,3.367-1.516c2.207,0,3.309,1.186,3.309,3.545v6.352H123.709z"/>
	<path fill="#FFFFFF" d="M130.292,14.148c0.562,0,1.048-0.055,1.466-0.148v0.716c-0.427,0.142-0.923,0.216-1.483,0.216
		c-0.857,0-1.492-0.229-1.896-0.69c-0.407-0.456-0.612-1.175-0.612-2.158V5.814h-1.437V5.298l1.437-0.4l0.444-2.201h0.46V5.05h2.85
		v0.765h-2.85v6.145c0,0.739,0.13,1.291,0.394,1.647C129.323,13.963,129.731,14.148,130.292,14.148z"/>
	<path fill="#FFFFFF" d="M137.774,14.932c-1.411,0-2.507-0.435-3.297-1.308c-0.789-0.867-1.184-2.085-1.184-3.65
		c0-1.545,0.378-2.792,1.141-3.721c0.765-0.929,1.789-1.396,3.085-1.396c1.139,0,2.042,0.399,2.701,1.2
		c0.662,0.791,0.992,1.88,0.992,3.25v0.71h-6.992c0.01,1.334,0.322,2.354,0.935,3.058c0.607,0.7,1.485,1.048,2.618,1.048
		c0.555,0,1.04-0.035,1.458-0.114c0.424-0.075,0.952-0.245,1.593-0.499v0.803c-0.543,0.24-1.048,0.403-1.514,0.488
		C138.846,14.889,138.334,14.932,137.774,14.932z M137.52,5.643c-0.936,0-1.688,0.307-2.253,0.926
		c-0.565,0.613-0.895,1.501-0.993,2.666h6.004c0-1.127-0.244-2.009-0.737-2.64C139.054,5.961,138.381,5.643,137.52,5.643z"/>
	<path fill="#FFFFFF" d="M147.711,4.857c0.412,0,0.853,0.043,1.322,0.125l-0.167,0.847c-0.409-0.096-0.827-0.151-1.26-0.151
		c-0.826,0-1.505,0.351-2.038,1.057c-0.529,0.701-0.796,1.586-0.796,2.661v5.358h-0.88V5.05h0.75l0.089,1.746h0.062
		c0.398-0.715,0.822-1.215,1.276-1.504C146.523,5,147.066,4.857,147.711,4.857z"/>
	<path fill="#FFFFFF" d="M157.03,12.223c0,0.875-0.335,1.539-0.993,2.006c-0.66,0.467-1.599,0.703-2.812,0.703
		c-1.296,0-2.326-0.201-3.088-0.602v-0.951c0.977,0.484,2.006,0.729,3.088,0.729c0.955,0,1.683-0.162,2.184-0.479
		c0.498-0.32,0.744-0.745,0.744-1.271c0-0.487-0.201-0.898-0.591-1.234c-0.397-0.333-1.053-0.657-1.955-0.981
		c-0.967-0.351-1.651-0.654-2.044-0.905c-0.393-0.254-0.689-0.537-0.89-0.855c-0.197-0.318-0.297-0.707-0.297-1.168
		c0-0.728,0.303-1.297,0.915-1.724c0.61-0.423,1.463-0.633,2.557-0.633c1.049,0,2.043,0.195,2.983,0.59l-0.33,0.803
		c-0.951-0.392-1.842-0.587-2.653-0.587c-0.791,0-1.416,0.131-1.882,0.395c-0.465,0.26-0.696,0.619-0.696,1.086
		c0,0.505,0.179,0.911,0.538,1.215c0.361,0.304,1.066,0.646,2.11,1.017c0.879,0.318,1.512,0.599,1.914,0.85
		c0.397,0.257,0.694,0.545,0.895,0.864C156.93,11.413,157.03,11.79,157.03,12.223z"/>
</g>
<g>
	<path fill="#4D4E50" d="M4.592,29.408h3.872v0.73H4.592v3.859H3.856v-3.859H0v-0.73h3.856v-3.877h0.735V29.408z"/>
	<path fill="#FFFFFF" d="M18.385,35.625c0.561,0,1.047-0.055,1.465-0.148v0.716c-0.43,0.142-0.922,0.216-1.481,0.216
		c-0.857,0-1.488-0.229-1.896-0.69c-0.409-0.456-0.612-1.175-0.612-2.158v-6.269H14.42v-0.517l1.441-0.399l0.444-2.201h0.453v2.353
		h2.852v0.765h-2.852v6.146c0,0.739,0.131,1.291,0.395,1.647C17.416,35.439,17.825,35.625,18.385,35.625z"/>
	<path fill="#FFFFFF" d="M27.841,36.23l-0.219-1.539h-0.074c-0.492,0.622-0.992,1.066-1.504,1.326
		c-0.519,0.26-1.125,0.391-1.826,0.391c-0.957,0-1.693-0.244-2.228-0.731c-0.528-0.494-0.795-1.165-0.795-2.03
		c0-0.941,0.398-1.682,1.188-2.204c0.785-0.522,1.93-0.801,3.424-0.833l1.846-0.052v-0.644c0-0.922-0.188-1.621-0.561-2.088
		c-0.377-0.474-0.98-0.707-1.812-0.707c-0.899,0-1.83,0.252-2.797,0.754l-0.328-0.771c1.066-0.502,2.115-0.753,3.162-0.753
		c1.064,0,1.857,0.276,2.388,0.832c0.526,0.555,0.791,1.416,0.791,2.593v6.457H27.841z M24.27,35.6c1.035,0,1.853-0.289,2.451-0.885
		c0.596-0.594,0.9-1.416,0.9-2.469v-0.957l-1.699,0.076c-1.363,0.062-2.338,0.273-2.916,0.637c-0.58,0.358-0.869,0.92-0.869,1.679
		c0,0.61,0.184,1.077,0.555,1.42C23.063,35.434,23.591,35.6,24.27,35.6z"/>
	<path fill="#FFFFFF" d="M32.518,36.23h-0.881V22.332h0.881V36.23z"/>
	<path fill="#FFFFFF" d="M39.69,36.408c-1.412,0-2.51-0.435-3.299-1.308c-0.791-0.867-1.18-2.085-1.18-3.649
		c0-1.545,0.373-2.793,1.139-3.722c0.762-0.929,1.787-1.396,3.084-1.396c1.137,0,2.043,0.398,2.701,1.199
		c0.664,0.791,0.994,1.881,0.994,3.25v0.711h-6.996c0.012,1.334,0.326,2.354,0.938,3.058c0.605,0.7,1.484,1.048,2.619,1.048
		c0.552,0,1.041-0.035,1.459-0.114c0.424-0.075,0.949-0.245,1.595-0.499v0.803c-0.546,0.24-1.052,0.403-1.517,0.488
		C40.76,36.365,40.248,36.408,39.69,36.408z M39.434,27.119c-0.936,0-1.688,0.308-2.254,0.926c-0.564,0.613-0.895,1.502-0.992,2.666
		h6.004c0-1.127-0.246-2.008-0.735-2.639C40.969,27.438,40.295,27.119,39.434,27.119z"/>
	<path fill="#FFFFFF" d="M52.573,36.23v-6.299c0-0.973-0.2-1.684-0.616-2.126c-0.408-0.447-1.043-0.666-1.908-0.666
		c-1.16,0-2.012,0.292-2.549,0.879c-0.539,0.587-0.812,1.536-0.812,2.854v5.357h-0.883v-9.704h0.752l0.168,1.323h0.053
		c0.629-1.008,1.756-1.516,3.365-1.516c2.205,0,3.31,1.186,3.31,3.545v6.352H52.573z"/>
	<path fill="#FFFFFF" d="M59.153,35.625c0.564,0,1.052-0.055,1.47-0.148v0.716c-0.431,0.142-0.925,0.216-1.484,0.216
		c-0.857,0-1.49-0.229-1.896-0.69c-0.408-0.456-0.611-1.175-0.611-2.158v-6.269h-1.439v-0.517l1.439-0.399l0.445-2.201h0.457v2.353
		h2.85v0.765h-2.85v6.146c0,0.739,0.131,1.291,0.393,1.647C58.188,35.439,58.594,35.625,59.153,35.625z"/>
	<path fill="#FFFFFF" d="M73.366,36.23l-0.227-1.539h-0.072c-0.487,0.622-0.989,1.066-1.508,1.326
		c-0.51,0.26-1.121,0.391-1.822,0.391c-0.95,0-1.692-0.244-2.221-0.731c-0.535-0.494-0.795-1.165-0.795-2.03
		c0-0.941,0.395-1.682,1.182-2.204c0.789-0.522,1.929-0.801,3.422-0.833l1.851-0.052v-0.644c0-0.922-0.187-1.621-0.562-2.088
		c-0.377-0.474-0.977-0.707-1.813-0.707c-0.898,0-1.828,0.252-2.791,0.754l-0.334-0.771c1.065-0.502,2.123-0.753,3.162-0.753
		c1.065,0,1.858,0.276,2.387,0.832c0.531,0.555,0.791,1.416,0.791,2.593v6.457H73.366z M69.791,35.6c1.041,0,1.854-0.289,2.45-0.885
		c0.603-0.594,0.898-1.416,0.898-2.469v-0.957l-1.699,0.076c-1.356,0.062-2.332,0.273-2.912,0.637
		c-0.578,0.358-0.873,0.92-0.873,1.679c0,0.61,0.191,1.077,0.562,1.42C68.587,35.434,69.116,35.6,69.791,35.6z"/>
	<path fill="#FFFFFF" d="M80.712,26.334c0.701,0,1.309,0.125,1.819,0.385c0.515,0.254,0.974,0.691,1.373,1.309h0.054
		c-0.029-0.744-0.054-1.482-0.054-2.205v-3.49h0.879v13.897h-0.577l-0.226-1.485h-0.076c-0.735,1.108-1.797,1.664-3.176,1.664
		c-1.338,0-2.363-0.42-3.074-1.25c-0.702-0.838-1.061-2.051-1.061-3.645c0-1.68,0.352-2.962,1.055-3.854
		C78.35,26.781,79.371,26.334,80.712,26.334z M80.712,27.14c-1.06,0-1.855,0.374-2.39,1.112c-0.53,0.748-0.797,1.824-0.797,3.242
		c0,2.748,1.066,4.131,3.203,4.131c1.096,0,1.898-0.323,2.41-0.961c0.512-0.637,0.766-1.685,0.766-3.149v-0.149
		c0-1.504-0.248-2.586-0.752-3.244C82.653,27.47,81.837,27.14,80.712,27.14z"/>
	<path fill="#FFFFFF" d="M90.169,36.23l-3.752-9.704h0.914l2.51,6.595c0.328,0.847,0.578,1.582,0.748,2.213h0.051
		c0.244-0.809,0.496-1.551,0.752-2.23l2.51-6.576h0.908l-3.748,9.704L90.169,36.23L90.169,36.23z"/>
	<path fill="#FFFFFF" d="M96.309,23.828c0-0.578,0.189-0.86,0.564-0.86c0.184,0,0.33,0.071,0.436,0.222
		c0.104,0.15,0.154,0.362,0.154,0.641c0,0.266-0.051,0.473-0.154,0.631c-0.104,0.154-0.252,0.229-0.436,0.229
		C96.5,24.689,96.309,24.4,96.309,23.828z M97.317,36.23h-0.881v-9.704h0.881V36.23z"/>
	<path fill="#FFFFFF" d="M106.591,33.699c0,0.875-0.338,1.539-0.994,2.006c-0.658,0.467-1.6,0.703-2.812,0.703
		c-1.294,0-2.324-0.201-3.089-0.602v-0.951c0.979,0.484,2.009,0.729,3.089,0.729c0.959,0,1.686-0.162,2.186-0.479
		c0.496-0.32,0.744-0.745,0.744-1.271c0-0.487-0.201-0.898-0.59-1.234c-0.398-0.333-1.054-0.657-1.957-0.98
		c-0.97-0.352-1.65-0.654-2.045-0.906c-0.394-0.254-0.689-0.536-0.888-0.854c-0.198-0.317-0.299-0.707-0.299-1.168
		c0-0.728,0.305-1.297,0.914-1.724c0.613-0.424,1.463-0.633,2.557-0.633c1.052,0,2.043,0.195,2.984,0.59l-0.33,0.803
		c-0.949-0.393-1.84-0.587-2.654-0.587c-0.788,0-1.415,0.131-1.879,0.396c-0.469,0.26-0.696,0.619-0.696,1.086
		c0,0.504,0.178,0.91,0.539,1.215c0.358,0.304,1.063,0.646,2.11,1.017c0.877,0.317,1.511,0.599,1.91,0.851
		c0.398,0.256,0.699,0.545,0.896,0.863C106.491,32.89,106.591,33.267,106.591,33.699z"/>
	<path fill="#FFFFFF" d="M113.01,36.408c-1.412,0-2.519-0.435-3.305-1.308c-0.791-0.867-1.185-2.085-1.185-3.649
		c0-1.545,0.383-2.793,1.148-3.722c0.76-0.929,1.783-1.396,3.076-1.396c1.146,0,2.045,0.398,2.709,1.199
		c0.657,0.791,0.985,1.881,0.985,3.25v0.711h-6.987c0.012,1.334,0.317,2.354,0.932,3.058c0.611,0.7,1.484,1.048,2.625,1.048
		c0.553,0,1.037-0.035,1.457-0.114c0.416-0.075,0.949-0.245,1.592-0.499v0.803c-0.545,0.24-1.055,0.403-1.516,0.488
		C114.082,36.365,113.567,36.408,113.01,36.408z M112.748,27.119c-0.935,0-1.685,0.308-2.248,0.926
		c-0.568,0.613-0.896,1.502-0.992,2.666h6.002c0-1.127-0.246-2.008-0.734-2.639C114.289,27.438,113.61,27.119,112.748,27.119z"/>
	<path fill="#FFFFFF" d="M122.944,26.334c0.414,0,0.854,0.043,1.322,0.125l-0.166,0.847c-0.41-0.097-0.828-0.151-1.262-0.151
		c-0.824,0-1.504,0.352-2.037,1.057c-0.527,0.701-0.793,1.586-0.793,2.662v5.357h-0.885v-9.704h0.752l0.088,1.746h0.063
		c0.398-0.715,0.82-1.215,1.277-1.504C121.759,26.477,122.3,26.334,122.944,26.334z"/>
	<path fill="#FFFFFF" d="M132.259,33.699c0,0.875-0.33,1.539-0.988,2.006c-0.662,0.467-1.598,0.703-2.817,0.703
		c-1.296,0-2.324-0.201-3.089-0.602v-0.951c0.979,0.484,2.007,0.729,3.089,0.729c0.963,0,1.688-0.162,2.186-0.479
		c0.496-0.32,0.748-0.745,0.748-1.271c0-0.487-0.197-0.898-0.596-1.234c-0.396-0.333-1.045-0.657-1.949-0.98
		c-0.973-0.352-1.652-0.654-2.045-0.906c-0.396-0.254-0.689-0.536-0.89-0.854c-0.202-0.317-0.303-0.707-0.303-1.168
		c0-0.728,0.31-1.297,0.916-1.724c0.611-0.424,1.463-0.633,2.562-0.633c1.047,0,2.045,0.195,2.983,0.59l-0.334,0.803
		c-0.951-0.393-1.838-0.587-2.649-0.587c-0.796,0-1.425,0.131-1.888,0.396c-0.459,0.26-0.692,0.619-0.692,1.086
		c0,0.504,0.18,0.91,0.543,1.215c0.354,0.304,1.059,0.646,2.11,1.017c0.869,0.317,1.511,0.599,1.906,0.851
		c0.402,0.256,0.701,0.545,0.9,0.863C132.16,32.89,132.259,33.267,132.259,33.699z"/>
</g>
</svg>
