<?xml version="1.0" encoding="utf-8"?>
<!-- Generator: Adobe Illustrator 16.0.0, SVG Export Plug-In . SVG Version: 6.00 Build 0)  -->
<!DOCTYPE svg PUBLIC "-//W3C//DTD SVG 1.1//EN" "http://www.w3.org/Graphics/SVG/1.1/DTD/svg11.dtd">
<svg version="1.1" id="Layer_1" xmlns="http://www.w3.org/2000/svg" xmlns:xlink="http://www.w3.org/1999/xlink" x="0px" y="0px"
	 width="32px" height="32px" viewBox="0 0 32 32" enable-background="new 0 0 32 32" xml:space="preserve">
<g>
	<path fill="#FFFFFF" d="M16,0C7.162,0,0,7.164,0,16c0,8.838,7.162,16,16,16c8.836,0,16-7.162,16-16C32,7.164,24.836,0,16,0z
		 M16,29.5C8.543,29.5,2.5,23.457,2.5,16C2.5,8.545,8.543,2.5,16,2.5c7.455,0,13.5,6.045,13.5,13.5C29.5,23.457,23.455,29.5,16,29.5
		z"/>
	<path fill="#FFFFFF" d="M24,10.684c-0.27,0.16-1.078,0.479-1.832,0.559c0.482-0.281,1.199-1.199,1.375-1.93
		c-0.465,0.318-1.531,0.785-2.059,0.785c0,0,0,0,0,0.002C20.883,9.422,20.037,9,19.098,9c-1.822,0-3.301,1.592-3.301,3.555
		c0,0.273,0.031,0.537,0.086,0.793h-0.002c-2.473-0.068-5.363-1.404-6.992-3.688c-1,1.865-0.135,3.939,1.002,4.695
		c-0.389,0.033-1.105-0.047-1.441-0.4c-0.023,1.238,0.529,2.879,2.545,3.473c-0.389,0.227-1.074,0.162-1.373,0.111
		c0.105,1.047,1.465,2.414,2.949,2.414c-0.529,0.658-2.336,1.857-4.57,1.475C9.518,22.424,11.289,23,13.162,23
		c5.326,0,9.461-4.646,9.238-10.381c0,0-0.002-0.014-0.002-0.02c0-0.016,0.002-0.031,0.002-0.045c0-0.018-0.002-0.035-0.002-0.053
		C22.883,12.146,23.533,11.516,24,10.684z"/>
</g>
</svg>
