<?xml version="1.0" standalone="no"?>
<!DOCTYPE svg PUBLIC "-//W3C//DTD SVG 20010904//EN"
 "http://www.w3.org/TR/2001/REC-SVG-20010904/DTD/svg10.dtd">
<svg version="1.0" xmlns="http://www.w3.org/2000/svg"
 width="595.000000pt" height="595.000000pt" viewBox="0 0 595.000000 595.000000"
 preserveAspectRatio="xMidYMid meet">
<metadata>
Created by potrace 1.11, written by Peter Selinger 2001-2013
</metadata>
<g transform="translate(0.000000,595.000000) scale(0.100000,-0.100000)"
fill="#000000" stroke="none">
<path d="M3128 5415 c-2 -1 -21 -5 -43 -8 -90 -13 -123 -19 -175 -33 -276 -75
-514 -229 -700 -454 -257 -312 -405 -734 -403 -1160 0 -92 10 -229 18 -260 2
-8 6 -32 9 -52 24 -163 105 -385 193 -532 39 -64 127 -185 163 -224 l21 -22
-222 -288 c-122 -158 -231 -297 -243 -309 -11 -12 -35 -23 -52 -25 -46 -5
-150 -77 -224 -155 -71 -75 -83 -90 -150 -178 -24 -33 -83 -107 -130 -164
-231 -283 -309 -421 -310 -549 0 -25 5 -35 20 -39 10 -3 32 -28 48 -57 94
-165 242 -305 459 -432 50 -30 100 -54 112 -54 25 0 43 31 37 62 -5 19 6 32
60 73 152 115 519 553 627 746 32 57 57 142 57 194 0 41 15 65 146 230 13 17
105 136 205 265 99 129 182 236 183 238 2 1 36 -11 75 -28 145 -59 295 -101
491 -135 80 -14 346 -14 436 0 181 29 371 107 547 227 175 120 424 393 549
603 110 185 190 401 215 581 10 74 11 342 1 411 -82 567 -450 1040 -1023 1318
-192 93 -426 170 -580 191 -27 3 -59 8 -70 11 -22 5 -342 13 -347 8z m277 -79
c11 -2 40 -7 65 -11 236 -37 585 -163 783 -282 229 -137 449 -349 589 -568 89
-137 183 -357 203 -474 3 -19 8 -37 10 -40 17 -28 25 -304 12 -416 -39 -336
-234 -723 -496 -985 -215 -214 -449 -344 -724 -401 -113 -24 -333 -33 -427
-18 -30 5 -70 11 -89 14 -187 30 -468 141 -667 266 -301 187 -484 376 -608
624 -227 455 -215 1021 34 1530 202 416 589 721 965 762 28 3 52 7 54 9 5 4
270 -4 296 -10z m-1052 -2797 c78 -66 260 -190 345 -235 57 -30 62 -42 33 -68
-18 -17 -22 -15 -93 37 -104 77 -177 114 -189 96 -6 -10 -2 -19 14 -31 12 -10
26 -18 30 -18 10 0 186 -121 193 -132 3 -5 -2 -18 -11 -28 -14 -15 -22 -17
-43 -9 -25 10 -121 67 -132 79 -7 7 -59 38 -98 57 -26 14 -34 14 -45 4 -9 -10
-9 -15 3 -22 8 -6 72 -45 142 -88 123 -76 127 -79 112 -100 -8 -11 -23 -21
-33 -21 -10 0 -74 28 -142 61 -129 64 -176 82 -190 73 -10 -6 0 -34 12 -34 5
0 74 -32 154 -71 141 -70 145 -72 131 -93 -36 -53 -204 0 -296 94 -27 27 -53
50 -59 50 -27 0 -7 -41 42 -87 61 -58 107 -84 192 -108 33 -10 62 -19 63 -20
5 -4 -117 -159 -127 -163 -5 -1 -52 18 -104 43 -96 45 -180 102 -205 136 -7
10 -20 25 -29 34 -15 16 -17 16 -25 0 -7 -12 -2 -26 17 -51 38 -49 94 -89 209
-145 55 -27 101 -51 103 -53 9 -9 -23 -46 -39 -46 -31 0 -171 41 -223 66 -52
24 -99 62 -127 103 -11 15 -22 21 -33 17 -14 -5 -14 -9 -1 -34 35 -69 135
-129 272 -165 88 -24 110 -40 61 -45 -15 -2 -34 -14 -43 -27 -12 -19 -20 -22
-47 -15 -49 11 -107 44 -194 109 -86 65 -197 177 -208 210 -5 16 11 42 61 108
38 49 122 158 188 243 66 85 142 184 170 220 88 115 101 130 109 130 4 0 40
-27 80 -61z m-679 -680 c71 -145 370 -366 501 -371 44 -2 49 -8 35 -55 -18
-68 -20 -69 -90 -50 -111 31 -266 123 -339 201 -28 29 -51 34 -51 10 0 -56
312 -254 399 -254 33 0 34 -18 4 -65 -31 -50 -37 -52 -112 -29 -101 29 -203
98 -324 217 -57 55 -87 71 -87 44 0 -17 127 -140 200 -194 65 -48 138 -86 200
-104 59 -16 63 -21 44 -47 -17 -24 -31 -25 -110 -3 -83 22 -233 142 -318 254
-16 20 -35 37 -42 37 -33 0 -8 -43 72 -128 115 -123 254 -212 330 -212 l25 0
-28 -35 c-31 -39 -42 -39 -130 0 -59 27 -133 79 -250 178 -55 46 -88 67 -99
63 -9 -3 -14 -10 -12 -15 6 -17 220 -190 277 -224 31 -19 78 -42 104 -52 45
-17 46 -18 30 -41 -8 -13 -16 -24 -18 -24 -1 0 -26 8 -56 19 -80 27 -169 75
-218 115 -45 38 -71 46 -71 21 0 -34 228 -175 283 -175 25 0 29 -18 10 -39
-18 -20 -19 -20 -77 4 -86 35 -130 68 -248 187 -84 86 -108 105 -117 94 -11
-13 29 -67 116 -152 86 -85 218 -174 258 -174 26 0 16 -25 -28 -68 -47 -46
-67 -49 -142 -17 -63 27 -164 114 -251 217 -15 19 -30 28 -40 24 -24 -9 -2
-40 105 -146 96 -94 181 -150 229 -150 30 0 28 -7 -10 -40 l-32 -28 -46 23
c-51 26 -116 85 -180 165 -46 56 -59 70 -72 70 -53 1 134 -217 232 -271 l35
-20 -35 7 c-65 12 -153 67 -234 147 -48 48 -84 76 -93 73 -45 -18 145 -192
263 -241 32 -13 54 -24 47 -25 -7 0 -18 -11 -26 -25 l-13 -26 -95 63 c-108 73
-141 100 -222 182 -60 61 -147 181 -147 204 0 7 -11 17 -24 22 -23 8 -24 11
-15 52 14 60 69 157 150 263 168 220 232 302 257 330 15 17 59 66 97 110 80
91 154 165 163 164 4 0 20 -27 36 -60z"/>
<path d="M3165 5073 c-374 -49 -691 -286 -870 -648 -172 -348 -204 -718 -94
-1078 78 -254 210 -444 421 -602 327 -247 663 -361 1023 -350 319 10 592 162
845 470 286 349 384 729 285 1115 -75 297 -259 565 -530 770 -100 76 -123 91
-240 151 -139 72 -326 136 -485 164 -42 8 -313 14 -355 8z m303 -78 c215 -28
461 -116 637 -226 271 -170 486 -439 579 -724 43 -135 56 -226 51 -375 -4
-150 -6 -168 -41 -290 -123 -424 -486 -793 -880 -894 -326 -83 -701 3 -1049
241 -200 137 -306 245 -398 404 -46 82 -102 211 -110 260 -3 13 -10 42 -16 64
-5 22 -13 60 -16 85 -4 25 -8 56 -10 70 -2 14 -5 61 -5 105 -4 250 46 467 160
700 89 182 199 314 348 416 124 86 300 152 441 165 36 4 67 8 69 9 5 4 193 -3
240 -10z"/>
<path d="M3195 4683 c-65 -13 -117 -30 -171 -55 -69 -32 -142 -82 -150 -102
-3 -8 18 -54 46 -102 28 -49 55 -106 61 -126 5 -21 14 -38 19 -38 5 0 31 14
57 30 43 28 108 52 174 66 13 2 68 4 121 5 l97 0 11 37 c5 20 10 66 10 102 0
145 -33 181 -169 185 -47 1 -95 1 -106 -2z m167 -39 c43 -6 46 -9 58 -47 17
-57 15 -167 -4 -186 -11 -11 -34 -14 -82 -13 -84 2 -186 -19 -259 -53 -31 -15
-57 -25 -58 -24 -11 22 -66 122 -81 151 l-21 37 25 26 c25 27 100 65 185 96
52 18 156 24 237 13z"/>
<path d="M3640 4658 c-23 -7 -25 -13 -24 -61 0 -30 -5 -85 -11 -123 -7 -38 -9
-72 -6 -75 13 -14 256 -88 263 -81 10 10 44 141 53 204 15 101 -11 126 -136
134 -46 3 -91 6 -99 8 -8 1 -26 -1 -40 -6z m202 -49 c48 -12 51 -36 22 -159
-23 -99 -17 -96 -129 -60 l-97 32 8 57 c4 31 7 77 7 102 l0 46 75 -4 c42 -2
93 -8 114 -14z"/>
<path d="M4979 3653 c0 -4 -2 -15 -3 -23 -2 -8 -6 -51 -10 -95 -14 -176 -94
-406 -204 -587 -293 -479 -685 -711 -1192 -702 -58 1 -127 5 -155 9 -27 3 -61
8 -75 10 -72 10 -191 39 -284 70 -118 40 -126 41 -126 20 0 -19 47 -39 195
-81 176 -50 282 -63 480 -59 94 1 184 6 200 9 182 38 295 76 420 138 292 147
533 423 680 778 15 36 28 70 29 75 1 6 12 42 23 80 38 127 47 181 48 284 0 51
-4 76 -12 78 -7 3 -13 1 -14 -4z"/>
<path d="M2065 2079 c-10 -15 31 -69 82 -109 25 -19 92 -62 150 -96 85 -51
105 -60 110 -47 7 19 -25 47 -99 87 -91 49 -131 78 -179 127 -51 53 -54 55
-64 38z"/>
<path d="M1490 935 c0 -54 208 -154 218 -104 2 12 -7 18 -33 23 -40 8 -97 39
-135 73 -28 26 -50 30 -50 8z"/>
</g>
</svg>
